<svg xmlns="http://www.w3.org/2000/svg" width="125" height="125" viewBox="0 0 125 125"><defs><style>.a{fill:#f7f5f4;}.b{fill:#62605e;}.c{fill:#a61598;}</style></defs><g transform="translate(-550 -446)"><rect class="a" width="125" height="125" transform="translate(550 446)"/><path class="b" d="M675,571H550V446H675Zm-124.254-.746H674.254V446.746H550.746Z"/><path class="b" d="M564.925,532.409h-6.3V528h17.313v4.407h-6.3v17.628h-4.721Z"/><path class="b" d="M577.2,547.047l3.148-3.148a7.037,7.037,0,0,0,5.194,2.361c2.518,0,3.62-1.1,3.62-2.519,0-3.777-11.018-2.046-11.018-9.758,0-3.462,2.991-6.453,8.028-6.453a9.993,9.993,0,0,1,7.4,2.991l-3.148,3.147a5.747,5.747,0,0,0-4.092-1.889c-2.361,0-3.306.945-3.306,2.2,0,3.778,11.018,2.046,11.018,9.758,0,3.62-3.148,6.769-8.342,6.769A11.291,11.291,0,0,1,577.2,547.047Z"/><path class="b" d="M667.533,482.63v9.883A1.486,1.486,0,0,1,666.046,494H647.592a1.486,1.486,0,0,1-1.487-1.487V491.2a1.487,1.487,0,0,1,1.487-1.487h5.655v-2.8a1.487,1.487,0,0,1,1.488-1.487h5.655v-2.8a1.487,1.487,0,0,1,1.487-1.487h4.169A1.486,1.486,0,0,1,667.533,482.63Zm-10.439-12.214-4.684.01-3.16-4.735c-.027.088-.041.178-.076.264l-1.525,3.772,1.79,2.681a3.541,3.541,0,0,0,2.952,1.579h4.7a1.786,1.786,0,0,0,0-3.571Zm-19.548,13.629-3.856,5.05a2.142,2.142,0,0,0,3.406,2.6l3.857-5.05a4.265,4.265,0,0,0,.869-2.572v-4.334l-4.283-2.24ZM646.819,454a3.572,3.572,0,1,0,3.571,3.571A3.573,3.573,0,0,0,646.819,454Zm-20.412,17.164a1.76,1.76,0,0,0-2.378.744L622.2,475.4a1.762,1.762,0,0,0,.744,2.379l5.7,2.982a1.764,1.764,0,0,0,2.379-.745l1.827-3.492a1.762,1.762,0,0,0-.744-2.378Zm21.891,5.515-4.127-2.16,3.679-9.1a2.148,2.148,0,0,0-.042-1.7,3.009,3.009,0,0,0-1.6-1.244c-.042,1.44-1.588,3.828-1.588,3.828s.494-3.041-.032-4.364l-1.474-.488a4.382,4.382,0,0,0-1.278-.307h-6.6a3.555,3.555,0,0,0-3.228,2.076l-2.47,5.413a1.785,1.785,0,1,0,3.248,1.481l2.45-5.4h3.778l-2.637,6.61a3.893,3.893,0,0,0,1.817,4.907l7.915,4.142v5.776a2.143,2.143,0,0,0,4.286,0V480.14A3.893,3.893,0,0,0,648.3,476.679Z"/><rect class="c" width="125" height="10" transform="translate(550 561)"/></g></svg>