<?xml version="1.0" encoding="utf-8"?>
<!-- Generator: Adobe Illustrator 27.2.0, SVG Export Plug-In . SVG Version: 6.00 Build 0)  -->
<svg version="1.1" id="Layer_1" xmlns="http://www.w3.org/2000/svg" xmlns:xlink="http://www.w3.org/1999/xlink" x="0px" y="0px"
	 width="125px" height="125px" viewBox="0 0 125 125" style="enable-background:new 0 0 125 125;" xml:space="preserve">
<style type="text/css">
	.st0{fill:#F7F6F5;}
	.st1{fill:#62615F;}
	.st2{enable-background:new    ;}
	.st3{fill:#A1278F;}
	.st4{fill-rule:evenodd;clip-rule:evenodd;fill:#62615F;}
</style>
<rect class="st0" width="125" height="125"/>
<path class="st1" d="M125,125H0V0h125V125z M0.8,124.2h123.5V0.8H0.8V124.2L0.8,124.2z"/>
<g class="st2">
	<path class="st1" d="M10.8,82H15l7.6,9.4l7.6-9.4h4.2v22h-4.7V89.6l-7.1,8.8l-7.1-8.8V104h-4.7V82z"/>
</g>
<g class="st2">
	<path class="st1" d="M37.8,82h5l5.8,16.2h0.1L54.4,82h5l-8.2,22h-5.4L37.8,82z"/>
</g>
<rect y="115" class="st3" width="125" height="10"/>
<g>
	<path class="st4" d="M99.2,14.9c-0.1-2.7-1.9-4.9-4.8-4.9c-3.1,0-4.8,2.2-4.8,4.8C89.5,25.1,99.2,24.9,99.2,14.9L99.2,14.9
		L99.2,14.9z M83.6,29.7c0.2-1.2,0.5-2.3,1-3.3c1-1.9,3-3.7,5.2-3.7h0.5l3.1,4.7l0.1-2.4L93,24.4l1.3-1l1.3,1L95.2,25l0.1,2.4
		l3.1-4.7h0.5c2.3,0,4.2,1.8,5.2,3.7c0.5,1,0.8,2.1,1,3.3l-0.4,0.7c-2.1,3.7-6.1,5.9-10.3,5.9s-8.2-2.3-10.3-6L83.6,29.7L83.6,29.7z
		"/>
	<path class="st1" d="M108.9,34.1l-1.7-1c-2.7,4-7,6.5-11.8,6.8v2.5c-0.3-0.1-0.7-0.1-1.1-0.1s-0.7,0-1.1,0.1V40
		c-4.8-0.3-9.1-2.8-11.8-6.8l-2.1,1.2c-0.2-0.7-0.6-1.4-1.1-1.9l3.9-2.3l0.5,0.9c2.4,4.1,6.8,6.7,11.6,6.7s9.2-2.5,11.6-6.7l0.5-0.9
		l3.6,2.1C109.6,32.8,109.1,33.4,108.9,34.1L108.9,34.1L108.9,34.1z M75.3,32c1.9,0,3.5,1.5,3.5,3.5S77.2,39,75.3,39
		s-3.5-1.5-3.5-3.5S73.4,32,75.3,32L75.3,32z M94.3,43.2c1.9,0,3.5,1.5,3.5,3.5s-1.6,3.5-3.5,3.5s-3.5-1.5-3.5-3.5
		S92.4,43.2,94.3,43.2L94.3,43.2z M112.9,32c1.9,0,3.5,1.5,3.5,3.5s-1.6,3.5-3.5,3.5s-3.5-1.5-3.5-3.5S111,32,112.9,32L112.9,32z"/>
</g>
</svg>
