<svg xmlns="http://www.w3.org/2000/svg" width="125" height="125" viewBox="0 0 125 125"><defs><style>.a{fill:#f7f5f4;}.b{fill:#62605e;}.c{fill:#a61598;}</style></defs><g transform="translate(-851 -447)"><rect class="a" width="125" height="125" transform="translate(851 447)"/><path class="b" d="M976,572H851V447H976Zm-124.254-.746H975.254V447.746H851.746Z"/><path class="b" d="M860.416,540.02a11.972,11.972,0,1,1,11.962,11.49A11.663,11.663,0,0,1,860.416,540.02Zm19.045,0a7.082,7.082,0,1,0-7.083,7.083A7.054,7.054,0,0,0,879.461,540.02Z"/><path class="b" d="M886.388,548.047l3.148-3.148a7.04,7.04,0,0,0,5.194,2.361c2.518,0,3.621-1.1,3.621-2.519,0-3.777-11.019-2.046-11.019-9.758,0-3.462,2.991-6.453,8.027-6.453a9.994,9.994,0,0,1,7.4,2.991l-3.148,3.147a5.749,5.749,0,0,0-4.092-1.889c-2.361,0-3.305.945-3.305,2.2,0,3.778,11.017,2.046,11.017,9.758,0,3.62-3.148,6.769-8.341,6.769A11.294,11.294,0,0,1,886.388,548.047Z"/><path class="b" d="M907.008,529h4.25l7.554,9.443L926.367,529h4.25v22.035H925.9v-14.48l-7.084,8.814-7.082-8.814v14.48h-4.722Z"/><path class="b" d="M948.459,461.118a2.447,2.447,0,0,0-2.447-2.447h-1.224v-2.447a1.224,1.224,0,1,0-2.447,0v2.447h-1.223a2.446,2.446,0,0,0-2.447,2.447,3.671,3.671,0,0,0-3.671,3.67v23.248a3.671,3.671,0,0,0,3.671,3.67h9.788a3.671,3.671,0,0,0,3.671-3.67V464.788A3.671,3.671,0,0,0,948.459,461.118Zm13.459,25.694a3.67,3.67,0,1,0,3.671-3.67A3.672,3.672,0,0,0,961.918,486.812Zm0-22.024a3.67,3.67,0,1,0,3.671-3.67A3.672,3.672,0,0,0,961.918,464.788Zm-1.049,12.236a4.363,4.363,0,0,1,0-2.447h-2.622v-7.342a1.43,1.43,0,0,1,1.224-1.223h1.4a4.363,4.363,0,0,1,0-2.447h-1.4a3.867,3.867,0,0,0-3.671,3.67v7.342h-2.447v2.447H955.8v7.341a3.867,3.867,0,0,0,3.671,3.671h1.4a4.363,4.363,0,0,1,0-2.447h-1.4a1.43,1.43,0,0,1-1.224-1.224v-7.341Zm1.049-1.224a3.67,3.67,0,1,0,3.671-3.67A3.672,3.672,0,0,0,961.918,475.8Zm-17.13-11.012v3.671h-2.447v-3.671Zm-2.447,9.789v-3.671h2.447v3.671Zm2.447,2.447v3.67h-2.447v-3.67Zm-7.341-12.236h2.447v3.671h-2.447Zm0,6.118h2.447v3.671h-2.447Zm0,6.118h2.447v3.67h-2.447Zm0,9.788v-3.67h2.447v3.67Zm4.894,0v-3.67h2.447v3.67Zm7.342,0h-2.448v-3.67h2.448Zm0-6.118h-2.448v-3.67h2.448Zm0-6.117h-2.448v-3.671h2.448Zm0-6.118h-2.448v-3.671h2.448Z"/><rect class="c" width="125" height="10" transform="translate(851 562)"/></g></svg>