<svg xmlns="http://www.w3.org/2000/svg" width="125" height="125" viewBox="0 0 125 125"><defs><style>.a{fill:#f7f5f4;}.b{fill:#62605e;}.c{fill:#a61598;}</style></defs><g transform="translate(-228 -279)"><rect class="a" width="125" height="125" transform="translate(228 279)"/><path class="b" d="M353,404H228V279H353Zm-124.254-.746H352.254V279.746H228.746Z"/><path class="b" d="M238.833,361h9.286c4.407,0,7.083,2.676,7.083,5.824a4.882,4.882,0,0,1-2.991,4.565,5.659,5.659,0,0,1,4.093,5.35c0,3.463-2.833,6.3-7.555,6.3h-9.916Zm8.972,8.5a2.223,2.223,0,1,0,0-4.406h-4.25V369.5Zm.629,9.444c1.888,0,2.991-1.1,2.991-2.675s-1.1-2.676-2.991-2.676h-4.879v5.351Z"/><path class="b" d="M260.555,361h9.286c4.721,0,7.87,3.148,7.87,7.4s-3.149,7.4-7.87,7.4h-4.565v7.24h-4.721Zm9.129,10.389a2.995,2.995,0,1,0,0-5.982h-4.408v5.982Z"/><path class="b" d="M280.545,372.02a11.972,11.972,0,1,1,11.962,11.49A11.663,11.663,0,0,1,280.545,372.02Zm19.045,0a7.083,7.083,0,1,0-7.083,7.083A7.054,7.054,0,0,0,299.59,372.02Z"/><rect class="c" width="125" height="10" transform="translate(228 394)"/><path class="b" d="M322.481,293.3h-3.148v-1.259A5.037,5.037,0,0,1,324.37,287h3.778a5.037,5.037,0,0,1,5.037,5.037V293.3h-3.148v-1.259a1.891,1.891,0,0,0-1.889-1.889H324.37a1.892,1.892,0,0,0-1.889,1.889Zm11.963,17.63h-5.037v.032c0,1.227-.627,3.746-3.145,3.746s-3.151-2.519-3.151-3.778h-5.037c-6.3,0-10.074-2.519-10.074-5.037v10.074A5.037,5.037,0,0,0,313.037,321h26.444a5.038,5.038,0,0,0,5.038-5.037V305.889C344.519,308.407,340.741,310.926,334.444,310.926Zm5.037-16.37H313.037A5.037,5.037,0,0,0,308,299.593V304c0,3.306,3.778,5.667,10.074,5.667h5.037v-1.889A1.889,1.889,0,0,1,325,305.889h2.519a1.889,1.889,0,0,1,1.888,1.889v1.889h5.037c6.3,0,10.075-2.361,10.075-5.667v-4.407A5.038,5.038,0,0,0,339.481,294.556Z"/></g></svg>