<svg xmlns="http://www.w3.org/2000/svg" width="125" height="125" viewBox="0 0 125 125"><defs><style>.a{fill:#f7f5f4;}.b{fill:#62605e;}.c{fill:#a61598;}</style></defs><g transform="translate(-40 -459)"><rect class="a" width="125" height="125" transform="translate(40 459)"/><path class="b" d="M165,584H40V459H165Zm-124.254-.746H164.254V459.746H40.746Z"/><path class="b" d="M48.629,560.047l3.148-3.148a7.041,7.041,0,0,0,5.195,2.361c2.517,0,3.62-1.1,3.62-2.519,0-3.777-11.019-2.046-11.019-9.758,0-3.462,2.991-6.453,8.028-6.453a9.993,9.993,0,0,1,7.4,2.991l-3.147,3.147a5.753,5.753,0,0,0-4.093-1.889c-2.361,0-3.305.945-3.305,2.2,0,3.778,11.018,2.046,11.018,9.758,0,3.62-3.149,6.769-8.342,6.769A11.294,11.294,0,0,1,48.629,560.047Z"/><path class="b" d="M69.249,541h9.286c4.723,0,7.87,3.148,7.87,7.4s-3.147,7.4-7.87,7.4H73.972v7.24H69.249Zm9.129,10.389a2.995,2.995,0,1,0,0-5.982H73.972v5.982Z"/><path class="b" d="M88.453,560.047,91.6,556.9a7.037,7.037,0,0,0,5.194,2.361c2.518,0,3.62-1.1,3.62-2.519,0-3.777-11.018-2.046-11.018-9.758,0-3.462,2.991-6.453,8.028-6.453a9.993,9.993,0,0,1,7.4,2.991l-3.148,3.147a5.747,5.747,0,0,0-4.092-1.889c-2.361,0-3.306.945-3.306,2.2,0,3.778,11.018,2.046,11.018,9.758,0,3.62-3.148,6.769-8.342,6.769A11.291,11.291,0,0,1,88.453,560.047Z"/><rect class="c" width="125" height="10" transform="translate(40 574)"/><path class="b" d="M154,481.308v14.769A4.923,4.923,0,0,1,149.077,501H124.462a4.924,4.924,0,0,1-4.924-4.923V481.308a4.924,4.924,0,0,1,4.924-4.923h24.615A4.923,4.923,0,0,1,154,481.308Zm-21.538-7.385a1.848,1.848,0,0,1,1.846-1.846h4.923a1.848,1.848,0,0,1,1.846,1.846v1.231h3.077v-1.231A4.923,4.923,0,0,0,139.231,469h-4.923a4.923,4.923,0,0,0-4.923,4.923v1.231h3.077Zm-6.77,6.154v17.231h2.462V480.077Zm19.693,0v17.231h2.461V480.077Z"/></g></svg>