<svg xmlns="http://www.w3.org/2000/svg" xmlns:xlink="http://www.w3.org/1999/xlink" width="200" height="200" viewBox="0 0 200 200"><defs><style>.a{fill:#fbfafa;}.b{fill:#fff;}.c{clip-path:url(#a);}.d{fill:url(#b);}.e{fill:none;}.f{fill:url(#n);}.g,.h{stroke:none;}.h{fill:#d1ccc4;}</style><clipPath id="a"><rect class="a" width="200" height="200"/></clipPath><linearGradient id="b" y1="0.5" x2="1" y2="0.5" gradientUnits="objectBoundingBox"><stop offset="0" stop-color="#0072da"/><stop offset="0.9" stop-color="#a4d8e0"/></linearGradient><linearGradient id="n" x1="0" y1="0.5" x2="1" y2="0.5" xlink:href="#b"/></defs><g transform="translate(-96 -488)"><g transform="translate(96 488)"><path class="b" d="M0,0H200V200H0Z" transform="translate(0)"/><g class="c" transform="translate(0)"><g transform="translate(-169.646 -19.737)"><g transform="translate(3.604 3.604)"><path class="d" d="M473.015,434.253a43.433,43.433,0,1,0,31.775-13.812,43.431,43.431,0,0,0-31.775,13.812" transform="translate(-461.348 -258.15)"/><path class="d" d="M602.229,554.745A43.432,43.432,0,0,0,633.947,627.8h.071a43.432,43.432,0,1,0-31.789-73.052" transform="translate(-517.643 -310.645)"/><path class="d" d="M607.106,290.461a43.431,43.431,0,1,0,31.773-13.812,43.429,43.429,0,0,0-31.773,13.812" transform="translate(-519.768 -195.503)"/><path class="d" d="M736.32,410.954a43.43,43.43,0,1,0,31.774-13.812,43.43,43.43,0,0,0-31.774,13.812" transform="translate(-576.063 -247.999)"/><path class="d" d="M741.194,146.667a43.431,43.431,0,1,0,31.774-13.812,43.43,43.43,0,0,0-31.774,13.812" transform="translate(-578.187 -132.855)"/><path class="d" d="M870.407,267.16a43.432,43.432,0,1,0,75.2,29.682v-.071a43.433,43.433,0,0,0-75.2-29.611" transform="translate(-634.482 -185.351)"/></g><g transform="translate(0 0)"><path class="d" d="M501.989,508.128h0A47.037,47.037,0,1,1,536.4,493.169,46.876,46.876,0,0,1,501.989,508.128Zm.019-92.943a46.074,46.074,0,0,0-33.586,14.6A45.908,45.908,0,0,0,501.988,507v0a45.907,45.907,0,1,0,.019-91.815Z" transform="translate(-454.961 -251.764)"/><path class="d" d="M631.239,628.62h-.074a47.058,47.058,0,1,1,.074,0Zm-.018-92.943a46.071,46.071,0,0,0-33.584,14.6,45.907,45.907,0,0,0,33.528,77.216h.071v0a45.907,45.907,0,0,0-.016-91.815Z" transform="translate(-511.256 -304.26)"/><path class="d" d="M636.081,364.335h0a47.036,47.036,0,1,1,34.409-14.958A46.874,46.874,0,0,1,636.079,364.335Zm.016-92.944a46.071,46.071,0,0,0-33.583,14.6,45.908,45.908,0,0,0,33.565,77.216l0,.564v-.564a45.908,45.908,0,0,0,.016-91.816Z" transform="translate(-513.381 -189.116)"/><path class="d" d="M765.295,484.829h0A47.036,47.036,0,1,1,799.7,469.871,46.878,46.878,0,0,1,765.293,484.829Zm.016-92.944a46.07,46.07,0,0,0-33.583,14.6A45.908,45.908,0,0,0,765.293,483.7l0,.564V483.7a46.069,46.069,0,0,0,33.581-14.6,45.908,45.908,0,0,0-33.564-77.217Z" transform="translate(-569.676 -241.613)"/><path class="d" d="M770.17,220.542h0a47.036,47.036,0,1,1,34.408-14.957A46.874,46.874,0,0,1,770.167,220.542Zm.016-92.944A46.07,46.07,0,0,0,736.6,142.2a45.908,45.908,0,0,0,33.566,77.216l0,.564v-.564a45.908,45.908,0,0,0,.016-91.815Z" transform="translate(-571.8 -126.469)"/><path class="d" d="M899.381,341.034h0a47.037,47.037,0,1,1,47.044-47.047v.073a47.037,47.037,0,0,1-47.044,46.974Zm.019-92.944a46.07,46.07,0,0,0-33.586,14.6A45.908,45.908,0,0,0,899.38,339.9v0A45.909,45.909,0,0,0,945.3,294.058v-.072a45.9,45.9,0,0,0-45.9-45.9Z" transform="translate(-628.095 -178.965)"/></g><g transform="translate(239.32 112.9)"><path class="b" d="M884.8,332.121a3.324,3.324,0,1,0-4.7.165,3.324,3.324,0,0,0,4.7-.165" transform="translate(-879.046 -326.531)"/><path class="b" d="M938.377,359.937a3.324,3.324,0,1,0-4.7.166,3.323,3.323,0,0,0,4.7-.166" transform="translate(-902.387 -338.651)"/><path class="b" d="M925.164,339.566a3.324,3.324,0,1,0-4.7.165,3.324,3.324,0,0,0,4.7-.165" transform="translate(-896.631 -329.775)"/><path class="b" d="M953.746,343.457a3.324,3.324,0,1,0-4.7.165,3.324,3.324,0,0,0,4.7-.165" transform="translate(-909.083 -331.47)"/></g></g></g></g><g class="e" transform="translate(96 488)"><path class="g" d="M0,0H200V200H0Z"/><path class="h" d="M 0.649993896484375 0.649993896484375 L 0.649993896484375 199.3500061035156 L 199.3500061035156 199.3500061035156 L 199.3500061035156 0.649993896484375 L 0.649993896484375 0.649993896484375 M 0 0 L 200 0 L 200 200 L 0 200 L 0 0 Z"/></g><rect class="f" width="200" height="10" transform="translate(96 678)"/></g></svg>