<svg xmlns="http://www.w3.org/2000/svg" xmlns:xlink="http://www.w3.org/1999/xlink" width="200" height="200" viewBox="0 0 200 200"><defs><style>.a{fill:#f7f6f5;}.b{fill:#fff;}.c{clip-path:url(#a);}.d{clip-path:url(#b);}.e{fill:url(#c);}.f{fill:url(#e);}.g{fill:url(#f);}.h{fill:url(#g);}.i{fill:url(#h);}.j{fill:url(#i);}.k{fill:url(#j);}.l{fill:url(#k);}.m{fill:url(#l);}.n{fill:url(#m);}.o{fill:url(#n);}.p{fill:none;}.q{fill:url(#o);}.r,.s{stroke:none;}.s{fill:#d1ccc4;}</style><clipPath id="a"><rect class="a" width="200" height="200"/></clipPath><clipPath id="b"><rect width="444.393" height="280.787" transform="translate(0 0)"/></clipPath><linearGradient id="c" x1="-0.286" y1="0.358" x2="-0.285" y2="0.358" gradientUnits="objectBoundingBox"><stop offset="0" stop-color="#fefefe"/><stop offset="0.9" stop-color="#bdcf9b"/><stop offset="1" stop-color="#bdcf9b"/></linearGradient><linearGradient id="e" y1="0.5" x2="1" y2="0.5" gradientUnits="objectBoundingBox"><stop offset="0" stop-color="#2b70b8"/><stop offset="0.9" stop-color="#d1e0a8"/></linearGradient><linearGradient id="f" x1="-0.002" y1="0.501" x2="0.999" y2="0.501" xlink:href="#e"/><linearGradient id="g" x1="-0.002" y1="0.501" x2="1" y2="0.501" xlink:href="#e"/><linearGradient id="h" x1="-0.001" y1="0.501" x2="1" y2="0.501" xlink:href="#e"/><linearGradient id="i" x1="0" y1="0.501" x2="1" y2="0.501" xlink:href="#e"/><linearGradient id="j" x1="-0.001" y1="0.499" x2="1" y2="0.499" xlink:href="#e"/><linearGradient id="k" x1="-0.001" y1="0.501" x2="1.001" y2="0.501" xlink:href="#e"/><linearGradient id="l" x1="0" y1="0.501" x2="1" y2="0.501" xlink:href="#e"/><linearGradient id="m" x1="-0.001" y1="0.499" x2="1" y2="0.499" xlink:href="#e"/><linearGradient id="n" x1="0" y1="0.501" x2="1.001" y2="0.501" xlink:href="#e"/><linearGradient id="o" y1="0.5" x2="1" y2="0.5" gradientUnits="objectBoundingBox"><stop offset="0" stop-color="#0072da"/><stop offset="0.9" stop-color="#d1e2aa"/></linearGradient></defs><g transform="translate(-574 -488)"><rect class="b" width="200" height="200" transform="translate(574 488)"/><g class="c" transform="translate(574 488)"><g transform="translate(-110.125 -116.23)"><g class="d"><path class="e" d="M110.344-199.344,70.7-153.312l-.394-.35.438.306a8.911,8.911,0,0,0-1.794,5.338,8.846,8.846,0,0,0,2.582,6.257,8.737,8.737,0,0,0,6.257,2.582,8.911,8.911,0,0,0,5.338-1.794l.306.438-.35-.394,45.682-39.994h0a9.8,9.8,0,0,1,5.995-2.013,9.871,9.871,0,0,1,7,2.888,9.871,9.871,0,0,1,2.888,7,9.892,9.892,0,0,1-2.013,5.995h0l-39.644,46.032-.394-.35.438.306a8.911,8.911,0,0,0-1.794,5.338,8.846,8.846,0,0,0,2.582,6.257,8.738,8.738,0,0,0,6.257,2.582,8.911,8.911,0,0,0,5.338-1.794l.306.438-.35-.394,45.638-40.037h0a9.8,9.8,0,0,1,5.995-2.013,9.871,9.871,0,0,1,7,2.888,9.871,9.871,0,0,1,2.888,7,9.892,9.892,0,0,1-2.013,5.995h0l-39.6,46.076-.394-.35.438.306a8.911,8.911,0,0,0-1.794,5.338,8.846,8.846,0,0,0,2.582,6.257,8.737,8.737,0,0,0,6.257,2.582,8.911,8.911,0,0,0,5.338-1.794l.306.438-.35-.394,45.682-39.994h0a9.8,9.8,0,0,1,5.995-2.013,9.871,9.871,0,0,1,7,2.888,9.871,9.871,0,0,1,2.888,7,9.892,9.892,0,0,1-2.013,5.995h0L167.578-56.434l-.394-.35.438.306a8.911,8.911,0,0,0-1.794,5.338,8.846,8.846,0,0,0,2.582,6.257,8.737,8.737,0,0,0,6.257,2.582A8.911,8.911,0,0,0,180-44.095l.306.438-.35-.394,45.682-39.994h0a9.8,9.8,0,0,1,5.995-2.013,9.871,9.871,0,0,1,7,2.888,9.871,9.871,0,0,1,2.888,7,9.892,9.892,0,0,1-2.013,5.995h0L199.87-24.142l-.394-.35.438.306a8.911,8.911,0,0,0-1.794,5.338A8.846,8.846,0,0,0,200.7-12.59a8.737,8.737,0,0,0,6.257,2.582A8.911,8.911,0,0,0,212.3-11.8l.306.438-.35-.394L257.891-51.8h0a9.8,9.8,0,0,1,5.995-2.013,9.871,9.871,0,0,1,7,2.888,9.871,9.871,0,0,1,2.888,7,9.892,9.892,0,0,1-2.013,5.995h0L232.119,8.107l-.394-.35.438.306a8.858,8.858,0,0,0,.788,11.6,8.746,8.746,0,0,0,6.213,2.582H508.486v1.05H239.164a9.9,9.9,0,0,1-7.789-15.884h0l39.644-45.944.394.35-.438-.306a8.911,8.911,0,0,0,1.794-5.338,8.846,8.846,0,0,0-2.582-6.257,8.737,8.737,0,0,0-6.257-2.582,8.911,8.911,0,0,0-5.338,1.794l-.306-.438.35.394L213-10.884h0A9.8,9.8,0,0,1,207-8.871a9.871,9.871,0,0,1-7-2.888,9.871,9.871,0,0,1-2.888-7,9.892,9.892,0,0,1,2.013-5.995h0L238.77-70.787l.394.35-.438-.306a8.911,8.911,0,0,0,1.794-5.338,8.846,8.846,0,0,0-2.582-6.257,8.738,8.738,0,0,0-6.257-2.582,8.911,8.911,0,0,0-5.338,1.794l-.306-.438.35.394L180.748-43.132h0a9.8,9.8,0,0,1-5.995,2.013,9.871,9.871,0,0,1-7-2.888,9.871,9.871,0,0,1-2.888-7A9.892,9.892,0,0,1,166.878-57h0l39.644-46.032.394.35-.438-.306a8.911,8.911,0,0,0,1.794-5.338,8.846,8.846,0,0,0-2.582-6.257,8.738,8.738,0,0,0-6.257-2.582,8.911,8.911,0,0,0-5.338,1.794l-.306-.438.35.394L148.368-75.512h0a9.8,9.8,0,0,1-5.995,2.013,9.871,9.871,0,0,1-7-2.888,9.871,9.871,0,0,1-2.888-7,9.892,9.892,0,0,1,2.013-5.995h0l39.644-46.032.394.35-.438-.306a8.911,8.911,0,0,0,1.794-5.338,8.846,8.846,0,0,0-2.582-6.257,8.737,8.737,0,0,0-6.257-2.582,8.911,8.911,0,0,0-5.338,1.794l-.306-.438.35.394L116.076-107.8h0a9.8,9.8,0,0,1-5.995,2.013,9.871,9.871,0,0,1-7-2.888,9.871,9.871,0,0,1-2.888-7,9.892,9.892,0,0,1,2.013-5.995h0l39.644-46.032.394.35-.438-.306A8.911,8.911,0,0,0,143.6-173a8.846,8.846,0,0,0-2.582-6.257,8.737,8.737,0,0,0-6.257-2.582,8.911,8.911,0,0,0-5.338,1.794l-.306-.438.35.394L83.784-140.1h0a9.8,9.8,0,0,1-5.995,2.013,9.871,9.871,0,0,1-7-2.888,9.871,9.871,0,0,1-2.888-7,9.892,9.892,0,0,1,2.013-5.995h0L109.556-200l.788.656Z" transform="translate(-65.8 198.906)"/></g><g class="d"><path class="f" d="M239.207,22.328a8.9,8.9,0,0,1-6.213-2.582,8.737,8.737,0,0,1-2.582-6.257,8.911,8.911,0,0,1,1.794-5.338L271.85-37.882h0a9.8,9.8,0,0,0,2.013-5.995,9.871,9.871,0,0,0-2.888-7,9.871,9.871,0,0,0-7-2.888,9.892,9.892,0,0,0-5.995,2.013h0L212.341-11.759A8.911,8.911,0,0,1,207-9.965a8.846,8.846,0,0,1-6.257-2.582,8.738,8.738,0,0,1-2.582-6.257,8.911,8.911,0,0,1,1.794-5.338L239.6-70.13h0a9.8,9.8,0,0,0,2.013-5.995,9.871,9.871,0,0,0-2.888-7,9.871,9.871,0,0,0-7-2.888A9.892,9.892,0,0,0,225.73-84h0L180.092-44.007a8.911,8.911,0,0,1-5.338,1.794A8.846,8.846,0,0,1,168.5-44.8a8.737,8.737,0,0,1-2.582-6.257,8.911,8.911,0,0,1,1.794-5.338l39.644-45.988h0a9.8,9.8,0,0,0,2.013-5.995,9.871,9.871,0,0,0-2.888-7,9.871,9.871,0,0,0-7-2.888,9.892,9.892,0,0,0-5.995,2.013h0l-45.77,39.906a8.911,8.911,0,0,1-5.338,1.794,8.846,8.846,0,0,1-6.257-2.582,8.737,8.737,0,0,1-2.582-6.257,8.911,8.911,0,0,1,1.794-5.338l39.644-45.988h0a9.8,9.8,0,0,0,2.013-5.995,9.871,9.871,0,0,0-2.888-7,9.871,9.871,0,0,0-7-2.888,9.892,9.892,0,0,0-5.995,2.013h0l-45.682,39.95a8.911,8.911,0,0,1-5.338,1.794,8.846,8.846,0,0,1-6.257-2.582,8.737,8.737,0,0,1-2.582-6.257,8.911,8.911,0,0,1,1.794-5.338l39.644-45.988h0A9.8,9.8,0,0,0,144.693-173a9.871,9.871,0,0,0-2.888-7,9.871,9.871,0,0,0-7-2.888,9.892,9.892,0,0,0-5.995,2.013h0l-45.682,39.95a8.911,8.911,0,0,1-5.338,1.794,8.846,8.846,0,0,1-6.257-2.582,8.738,8.738,0,0,1-2.582-6.257,8.911,8.911,0,0,1,1.794-5.338l39.6-45.988h0l-.788-.7L69.913-153.968h0a9.8,9.8,0,0,0-2.013,5.995,9.871,9.871,0,0,0,2.888,7,9.871,9.871,0,0,0,7,2.888,9.892,9.892,0,0,0,5.995-2.013h0l45.638-39.994a8.911,8.911,0,0,1,5.338-1.794,8.846,8.846,0,0,1,6.257,2.582,8.737,8.737,0,0,1,2.582,6.257,8.911,8.911,0,0,1-1.794,5.338l-39.6,46.032h0a9.8,9.8,0,0,0-2.013,5.995,9.871,9.871,0,0,0,2.888,7,9.871,9.871,0,0,0,7,2.888,9.892,9.892,0,0,0,5.995-2.013h0L161.714-147.8a8.911,8.911,0,0,1,5.338-1.794,8.846,8.846,0,0,1,6.257,2.582,8.738,8.738,0,0,1,2.582,6.257,8.911,8.911,0,0,1-1.794,5.338L134.5-89.383h0a9.8,9.8,0,0,0-2.013,5.995,9.871,9.871,0,0,0,2.888,7,9.871,9.871,0,0,0,7,2.888,9.892,9.892,0,0,0,5.995-2.013h0l45.638-39.994a8.911,8.911,0,0,1,5.338-1.794,8.846,8.846,0,0,1,6.257,2.582,8.737,8.737,0,0,1,2.582,6.257,8.911,8.911,0,0,1-1.794,5.338L166.746-57.134h0a9.8,9.8,0,0,0-2.013,5.995,9.871,9.871,0,0,0,2.888,7,9.871,9.871,0,0,0,7,2.888,9.892,9.892,0,0,0,5.995-2.013h0l45.638-39.994a8.911,8.911,0,0,1,5.338-1.794,8.846,8.846,0,0,1,6.257,2.582,8.737,8.737,0,0,1,2.582,6.257,8.911,8.911,0,0,1-1.794,5.338L198.995-24.886h0a9.8,9.8,0,0,0-2.013,5.995,9.871,9.871,0,0,0,2.888,7,9.871,9.871,0,0,0,7,2.888,9.892,9.892,0,0,0,5.995-2.013h0L258.5-51.009a8.911,8.911,0,0,1,5.338-1.794,8.846,8.846,0,0,1,6.257,2.582,8.737,8.737,0,0,1,2.582,6.257,8.911,8.911,0,0,1-1.794,5.338L231.244,7.363h0a9.931,9.931,0,0,0,.875,13,9.746,9.746,0,0,0,6.914,2.888H508.355V22.2H239.207Z" transform="translate(-65.8 198.906)"/></g><path class="g" d="M446.037,350.763a7.944,7.944,0,0,0-2.013-.263,7.407,7.407,0,1,0,2.013.263Z" transform="translate(-273.154 -110.713)"/><path class="h" d="M647.437,350.763a7.946,7.946,0,0,0-2.013-.263,7.407,7.407,0,1,0,2.013.263Z" transform="translate(-386.429 -110.713)"/><path class="i" d="M848.837,350.763a7.945,7.945,0,0,0-2.013-.263,7.407,7.407,0,1,0,2.013.263Z" transform="translate(-499.702 -110.713)"/><path class="j" d="M529.637,408.463a7.945,7.945,0,0,0-2.013-.263,7.407,7.407,0,1,0,2.013.263Z" transform="translate(-320.174 -143.166)"/><path class="k" d="M587.937,350.263a7.949,7.949,0,0,0-2.013-.263,7.407,7.407,0,1,0,2.013.263Z" transform="translate(-352.963 -110.432)"/><path class="l" d="M690.437,210.763a7.945,7.945,0,0,0-2.013-.263,7.407,7.407,0,1,0,2.013.263Z" transform="translate(-410.613 -31.972)"/><path class="m" d="M731.037,408.463a7.943,7.943,0,0,0-2.013-.263,7.407,7.407,0,1,0,2.013.263Z" transform="translate(-433.448 -143.166)"/><path class="n" d="M789.337,350.263a7.947,7.947,0,0,0-2.013-.263,7.407,7.407,0,1,0,2.013.263Z" transform="translate(-466.238 -110.432)"/><path class="o" d="M932.437,408.463a7.944,7.944,0,0,0-2.013-.263,7.407,7.407,0,1,0,2.013.263Z" transform="translate(-546.721 -143.166)"/></g></g><g class="p" transform="translate(574 488)"><path class="r" d="M0,0H200V200H0Z"/><path class="s" d="M 0.649993896484375 0.649993896484375 L 0.649993896484375 199.3500061035156 L 199.3500061035156 199.3500061035156 L 199.3500061035156 0.649993896484375 L 0.649993896484375 0.649993896484375 M 0 0 L 200 0 L 200 200 L 0 200 L 0 0 Z"/></g><rect class="q" width="200" height="10" transform="translate(574 678)"/></g></svg>