<svg xmlns="http://www.w3.org/2000/svg" xmlns:xlink="http://www.w3.org/1999/xlink" width="200" height="200" viewBox="0 0 200 200"><defs><style>.a,.b{fill:#fff;}.a{stroke:#707070;}.c{clip-path:url(#a);}.d{fill:url(#b);}.e{fill:none;}.f{fill:url(#kd);}.g,.h{stroke:none;}.h{fill:#d1ccc4;}</style><clipPath id="a"><path class="a" d="M0,0H200V200H0Z" transform="translate(580 2510)"/></clipPath><linearGradient id="b" y1="0.5" x2="1" y2="0.5" gradientUnits="objectBoundingBox"><stop offset="0" stop-color="#0072da"/><stop offset="0.9" stop-color="#a4d8e0"/></linearGradient><linearGradient id="kd" y1="0.5" x2="1" y2="0.5" gradientUnits="objectBoundingBox"><stop offset="0" stop-color="#0072da"/><stop offset="0.9" stop-color="#9dcbef"/></linearGradient></defs><g transform="translate(-1054 -485)"><path class="b" d="M0,0H200V200H0Z" transform="translate(1054 485)"/><g class="c" transform="translate(474 -2025)"><g transform="translate(317.573 -40.93)"><g transform="translate(479.649 2578.584)"><circle class="d" cx="3.948" cy="3.948" r="3.948" transform="translate(4.748 4.748)"/><circle class="d" cx="2.203" cy="2.203" r="2.203" transform="translate(6.494 6.494)"/><path class="d" d="M933.062,408.423a5.674,5.674,0,1,1,5.674-5.674A5.68,5.68,0,0,1,933.062,408.423Zm0-11.01a5.337,5.337,0,1,0,5.337,5.337A5.343,5.343,0,0,0,933.062,397.413Z" transform="translate(-924.365 -394.053)"/><circle class="d" cx="3.948" cy="3.948" r="3.948" transform="translate(18.344 4.748)"/><circle class="d" cx="2.203" cy="2.203" r="2.203" transform="translate(20.09 6.494)"/><path class="d" d="M973.41,408.423a5.674,5.674,0,1,1,5.674-5.674A5.68,5.68,0,0,1,973.41,408.423Zm0-11.01a5.337,5.337,0,1,0,5.337,5.337A5.343,5.343,0,0,0,973.41,397.413Z" transform="translate(-951.117 -394.053)"/><circle class="d" cx="3.948" cy="3.948" r="3.948" transform="translate(31.941 4.748)"/><circle class="d" cx="2.203" cy="2.203" r="2.203" transform="translate(33.686 6.494)"/><path class="d" d="M1013.757,408.423a5.674,5.674,0,1,1,5.674-5.674A5.68,5.68,0,0,1,1013.757,408.423Zm0-11.01a5.337,5.337,0,1,0,5.337,5.337A5.343,5.343,0,0,0,1013.757,397.413Z" transform="translate(-977.869 -394.053)"/><circle class="d" cx="3.948" cy="3.948" r="3.948" transform="translate(45.537 4.748)"/><circle class="d" cx="2.203" cy="2.203" r="2.203" transform="translate(47.283 6.494)"/><path class="d" d="M1054.106,408.423a5.674,5.674,0,1,1,5.674-5.674A5.68,5.68,0,0,1,1054.106,408.423Zm0-11.01a5.337,5.337,0,1,0,5.337,5.337A5.343,5.343,0,0,0,1054.106,397.413Z" transform="translate(-1004.621 -394.053)"/><circle class="d" cx="3.948" cy="3.948" r="3.948" transform="translate(59.133 4.748)"/><circle class="d" cx="2.203" cy="2.203" r="2.203" transform="translate(60.879 6.494)"/><path class="d" d="M1094.456,408.423a5.674,5.674,0,1,1,5.673-5.674A5.68,5.68,0,0,1,1094.456,408.423Zm0-11.01a5.337,5.337,0,1,0,5.336,5.337A5.342,5.342,0,0,0,1094.456,397.413Z" transform="translate(-1031.374 -394.053)"/><path class="d" d="M981.5,405.5a8.63,8.63,0,0,1-6.8-3.274,8.694,8.694,0,0,1-13.6,0,8.694,8.694,0,0,1-13.6,0,8.694,8.694,0,0,1-13.6,0,8.7,8.7,0,1,1,0-10.844,8.695,8.695,0,0,1,13.6,0,8.695,8.695,0,0,1,13.6,0,8.695,8.695,0,0,1,13.6,0,8.7,8.7,0,1,1,6.8,14.118Zm-6.8-3.828.134.177a8.359,8.359,0,1,0,0-10.091l-.134.177-.134-.177a8.357,8.357,0,0,0-13.327,0l-.134.177-.134-.177a8.358,8.358,0,0,0-13.328,0l-.134.177-.134-.177a8.358,8.358,0,0,0-13.328,0l-.134.177-.134-.177a8.359,8.359,0,1,0,0,10.091l.134-.177.134.177a8.357,8.357,0,0,0,13.328,0l.134-.177.134.177a8.357,8.357,0,0,0,13.328,0l.134-.177.134.177a8.357,8.357,0,0,0,13.327,0Z" transform="translate(-918.417 -388.106)"/></g><g transform="translate(478.939 2600.006) rotate(20)"><circle class="d" cx="3.948" cy="3.948" r="3.948" transform="translate(4.748 4.748)"/><circle class="d" cx="2.203" cy="2.203" r="2.203" transform="translate(6.494 6.494)"/><path class="d" d="M5.674,11.347a5.674,5.674,0,1,1,5.674-5.674A5.68,5.68,0,0,1,5.674,11.347Zm0-11.01A5.337,5.337,0,1,0,11.01,5.674,5.343,5.343,0,0,0,5.674.337Z" transform="translate(3.023 3.023)"/><circle class="d" cx="3.948" cy="3.948" r="3.948" transform="translate(18.344 4.748)"/><circle class="d" cx="2.203" cy="2.203" r="2.203" transform="translate(20.09 6.494)"/><path class="d" d="M5.674,11.347a5.674,5.674,0,1,1,5.674-5.674A5.68,5.68,0,0,1,5.674,11.347Zm0-11.01A5.337,5.337,0,1,0,11.01,5.674,5.342,5.342,0,0,0,5.674.337Z" transform="translate(16.619 3.023)"/><circle class="d" cx="3.948" cy="3.948" r="3.948" transform="translate(31.941 4.748)"/><circle class="d" cx="2.203" cy="2.203" r="2.203" transform="translate(33.686 6.494)"/><path class="d" d="M5.674,11.347a5.674,5.674,0,1,1,5.674-5.674A5.68,5.68,0,0,1,5.674,11.347Zm0-11.01A5.337,5.337,0,1,0,11.01,5.674,5.343,5.343,0,0,0,5.674.337Z" transform="translate(30.215 3.023)"/><circle class="d" cx="3.948" cy="3.948" r="3.948" transform="translate(45.537 4.748)"/><circle class="d" cx="2.203" cy="2.203" r="2.203" transform="translate(47.283 6.494)"/><path class="d" d="M5.674,11.347a5.674,5.674,0,1,1,5.674-5.674A5.68,5.68,0,0,1,5.674,11.347Zm0-11.01A5.337,5.337,0,1,0,11.01,5.674,5.343,5.343,0,0,0,5.674.337Z" transform="translate(43.812 3.023)"/><circle class="d" cx="3.948" cy="3.948" r="3.948" transform="translate(59.133 4.748)"/><circle class="d" cx="2.203" cy="2.203" r="2.203" transform="translate(60.879 6.494)"/><path class="d" d="M5.674,11.347a5.674,5.674,0,1,1,5.673-5.674A5.68,5.68,0,0,1,5.674,11.347Zm0-11.01A5.337,5.337,0,1,0,11.01,5.674,5.342,5.342,0,0,0,5.674.337Z" transform="translate(57.408 3.023)"/><path class="d" d="M63.082,17.392a8.63,8.63,0,0,1-6.8-3.274,8.694,8.694,0,0,1-13.6,0,8.694,8.694,0,0,1-13.6,0,8.694,8.694,0,0,1-13.6,0A8.7,8.7,0,1,1,8.7,0a8.629,8.629,0,0,1,6.8,3.274,8.695,8.695,0,0,1,13.6,0,8.695,8.695,0,0,1,13.6,0,8.695,8.695,0,0,1,13.6,0,8.7,8.7,0,1,1,6.8,14.118Zm-6.8-3.828.134.177A8.359,8.359,0,1,0,63.082.337,8.3,8.3,0,0,0,56.417,3.65l-.134.177-.134-.177a8.357,8.357,0,0,0-13.327,0l-.134.177-.134-.177a8.358,8.358,0,0,0-13.328,0l-.134.177-.134-.177a8.358,8.358,0,0,0-13.328,0l-.134.177L15.36,3.65A8.359,8.359,0,1,0,8.7,17.055a8.3,8.3,0,0,0,6.664-3.314l.134-.177.134.177a8.357,8.357,0,0,0,13.328,0l.134-.177.134.177a8.357,8.357,0,0,0,13.328,0l.134-.177.134.177a8.357,8.357,0,0,0,13.327,0Z" transform="translate(0 0)"/></g><g transform="translate(470.945 2619.893) rotate(40)"><circle class="d" cx="3.948" cy="3.948" r="3.948" transform="translate(4.748 4.748)"/><circle class="d" cx="2.203" cy="2.203" r="2.203" transform="translate(6.494 6.494)"/><path class="d" d="M5.674,11.347a5.674,5.674,0,1,1,5.674-5.674A5.68,5.68,0,0,1,5.674,11.347Zm0-11.01A5.337,5.337,0,1,0,11.01,5.674,5.343,5.343,0,0,0,5.674.337Z" transform="translate(3.023 3.023)"/><circle class="d" cx="3.948" cy="3.948" r="3.948" transform="translate(18.344 4.748)"/><circle class="d" cx="2.203" cy="2.203" r="2.203" transform="translate(20.09 6.494)"/><path class="d" d="M5.674,11.347a5.674,5.674,0,1,1,5.674-5.674A5.68,5.68,0,0,1,5.674,11.347Zm0-11.01A5.337,5.337,0,1,0,11.01,5.674,5.342,5.342,0,0,0,5.674.337Z" transform="translate(16.619 3.023)"/><circle class="d" cx="3.948" cy="3.948" r="3.948" transform="translate(31.941 4.748)"/><circle class="d" cx="2.203" cy="2.203" r="2.203" transform="translate(33.686 6.494)"/><path class="d" d="M5.674,11.347a5.674,5.674,0,1,1,5.674-5.674A5.68,5.68,0,0,1,5.674,11.347Zm0-11.01A5.337,5.337,0,1,0,11.01,5.674,5.343,5.343,0,0,0,5.674.337Z" transform="translate(30.215 3.023)"/><circle class="d" cx="3.948" cy="3.948" r="3.948" transform="translate(45.537 4.748)"/><circle class="d" cx="2.203" cy="2.203" r="2.203" transform="translate(47.283 6.494)"/><path class="d" d="M5.674,11.347a5.674,5.674,0,1,1,5.674-5.674A5.68,5.68,0,0,1,5.674,11.347Zm0-11.01A5.337,5.337,0,1,0,11.01,5.674,5.343,5.343,0,0,0,5.674.337Z" transform="translate(43.812 3.023)"/><circle class="d" cx="3.948" cy="3.948" r="3.948" transform="translate(59.133 4.748)"/><circle class="d" cx="2.203" cy="2.203" r="2.203" transform="translate(60.879 6.494)"/><path class="d" d="M5.674,11.347a5.674,5.674,0,1,1,5.673-5.674A5.68,5.68,0,0,1,5.674,11.347Zm0-11.01A5.337,5.337,0,1,0,11.01,5.674,5.342,5.342,0,0,0,5.674.337Z" transform="translate(57.408 3.023)"/><path class="d" d="M63.082,17.392a8.63,8.63,0,0,1-6.8-3.274,8.694,8.694,0,0,1-13.6,0,8.694,8.694,0,0,1-13.6,0,8.694,8.694,0,0,1-13.6,0A8.7,8.7,0,1,1,8.7,0a8.629,8.629,0,0,1,6.8,3.274,8.695,8.695,0,0,1,13.6,0,8.695,8.695,0,0,1,13.6,0,8.695,8.695,0,0,1,13.6,0,8.7,8.7,0,1,1,6.8,14.118Zm-6.8-3.828.134.177A8.359,8.359,0,1,0,63.082.337,8.3,8.3,0,0,0,56.417,3.65l-.134.177-.134-.177a8.357,8.357,0,0,0-13.327,0l-.134.177-.134-.177a8.358,8.358,0,0,0-13.328,0l-.134.177-.134-.177a8.358,8.358,0,0,0-13.328,0l-.134.177L15.36,3.65A8.359,8.359,0,1,0,8.7,17.055a8.3,8.3,0,0,0,6.664-3.314l.134-.177.134.177a8.357,8.357,0,0,0,13.328,0l.134-.177.134.177a8.357,8.357,0,0,0,13.328,0l.134-.177.134.177a8.357,8.357,0,0,0,13.327,0Z" transform="translate(0 0)"/></g><g transform="translate(456.631 2635.845) rotate(60)"><circle class="d" cx="3.948" cy="3.948" r="3.948" transform="translate(4.748 4.748)"/><circle class="d" cx="2.203" cy="2.203" r="2.203" transform="translate(6.494 6.494)"/><path class="d" d="M5.674,11.347a5.674,5.674,0,1,1,5.674-5.674A5.68,5.68,0,0,1,5.674,11.347Zm0-11.01A5.337,5.337,0,1,0,11.01,5.674,5.343,5.343,0,0,0,5.674.337Z" transform="translate(3.023 3.023)"/><circle class="d" cx="3.948" cy="3.948" r="3.948" transform="translate(18.344 4.748)"/><circle class="d" cx="2.203" cy="2.203" r="2.203" transform="translate(20.09 6.494)"/><path class="d" d="M5.674,11.347a5.674,5.674,0,1,1,5.674-5.674A5.68,5.68,0,0,1,5.674,11.347Zm0-11.01A5.337,5.337,0,1,0,11.01,5.674,5.342,5.342,0,0,0,5.674.337Z" transform="translate(16.619 3.023)"/><circle class="d" cx="3.948" cy="3.948" r="3.948" transform="translate(31.941 4.748)"/><circle class="d" cx="2.203" cy="2.203" r="2.203" transform="translate(33.686 6.494)"/><path class="d" d="M5.674,11.347a5.674,5.674,0,1,1,5.674-5.674A5.68,5.68,0,0,1,5.674,11.347Zm0-11.01A5.337,5.337,0,1,0,11.01,5.674,5.343,5.343,0,0,0,5.674.337Z" transform="translate(30.215 3.023)"/><circle class="d" cx="3.948" cy="3.948" r="3.948" transform="translate(45.537 4.748)"/><circle class="d" cx="2.203" cy="2.203" r="2.203" transform="translate(47.283 6.494)"/><path class="d" d="M5.674,11.347a5.674,5.674,0,1,1,5.674-5.674A5.68,5.68,0,0,1,5.674,11.347Zm0-11.01A5.337,5.337,0,1,0,11.01,5.674,5.343,5.343,0,0,0,5.674.337Z" transform="translate(43.812 3.023)"/><circle class="d" cx="3.948" cy="3.948" r="3.948" transform="translate(59.133 4.748)"/><circle class="d" cx="2.203" cy="2.203" r="2.203" transform="translate(60.879 6.494)"/><path class="d" d="M5.674,11.347a5.674,5.674,0,1,1,5.673-5.674A5.68,5.68,0,0,1,5.674,11.347Zm0-11.01A5.337,5.337,0,1,0,11.01,5.674,5.342,5.342,0,0,0,5.674.337Z" transform="translate(57.408 3.023)"/><path class="d" d="M63.082,17.392a8.63,8.63,0,0,1-6.8-3.274,8.694,8.694,0,0,1-13.6,0,8.694,8.694,0,0,1-13.6,0,8.694,8.694,0,0,1-13.6,0A8.7,8.7,0,1,1,8.7,0a8.629,8.629,0,0,1,6.8,3.274,8.695,8.695,0,0,1,13.6,0,8.695,8.695,0,0,1,13.6,0,8.695,8.695,0,0,1,13.6,0,8.7,8.7,0,1,1,6.8,14.118Zm-6.8-3.828.134.177A8.359,8.359,0,1,0,63.082.337,8.3,8.3,0,0,0,56.417,3.65l-.134.177-.134-.177a8.357,8.357,0,0,0-13.327,0l-.134.177-.134-.177a8.358,8.358,0,0,0-13.328,0l-.134.177-.134-.177a8.358,8.358,0,0,0-13.328,0l-.134.177L15.36,3.65A8.359,8.359,0,1,0,8.7,17.055a8.3,8.3,0,0,0,6.664-3.314l.134-.177.134.177a8.357,8.357,0,0,0,13.328,0l.134-.177.134.177a8.357,8.357,0,0,0,13.328,0l.134-.177.134.177a8.357,8.357,0,0,0,13.327,0Z" transform="translate(0 0)"/></g><g transform="matrix(0.174, 0.985, -0.985, 0.174, 437.724, 2645.94)"><circle class="d" cx="3.948" cy="3.948" r="3.948" transform="translate(4.748 4.748)"/><circle class="d" cx="2.203" cy="2.203" r="2.203" transform="translate(6.494 6.494)"/><path class="d" d="M5.674,11.347a5.674,5.674,0,1,1,5.674-5.674A5.68,5.68,0,0,1,5.674,11.347Zm0-11.01A5.337,5.337,0,1,0,11.01,5.674,5.343,5.343,0,0,0,5.674.337Z" transform="translate(3.023 3.023)"/><circle class="d" cx="3.948" cy="3.948" r="3.948" transform="translate(18.344 4.748)"/><circle class="d" cx="2.203" cy="2.203" r="2.203" transform="translate(20.09 6.494)"/><path class="d" d="M5.674,11.347a5.674,5.674,0,1,1,5.674-5.674A5.68,5.68,0,0,1,5.674,11.347Zm0-11.01A5.337,5.337,0,1,0,11.01,5.674,5.342,5.342,0,0,0,5.674.337Z" transform="translate(16.619 3.023)"/><circle class="d" cx="3.948" cy="3.948" r="3.948" transform="translate(31.941 4.748)"/><circle class="d" cx="2.203" cy="2.203" r="2.203" transform="translate(33.686 6.494)"/><path class="d" d="M5.674,11.347a5.674,5.674,0,1,1,5.674-5.674A5.68,5.68,0,0,1,5.674,11.347Zm0-11.01A5.337,5.337,0,1,0,11.01,5.674,5.343,5.343,0,0,0,5.674.337Z" transform="translate(30.215 3.023)"/><circle class="d" cx="3.948" cy="3.948" r="3.948" transform="translate(45.537 4.748)"/><circle class="d" cx="2.203" cy="2.203" r="2.203" transform="translate(47.283 6.494)"/><path class="d" d="M5.674,11.347a5.674,5.674,0,1,1,5.674-5.674A5.68,5.68,0,0,1,5.674,11.347Zm0-11.01A5.337,5.337,0,1,0,11.01,5.674,5.343,5.343,0,0,0,5.674.337Z" transform="translate(43.812 3.023)"/><circle class="d" cx="3.948" cy="3.948" r="3.948" transform="translate(59.133 4.748)"/><circle class="d" cx="2.203" cy="2.203" r="2.203" transform="translate(60.879 6.494)"/><path class="d" d="M5.674,11.347a5.674,5.674,0,1,1,5.673-5.674A5.68,5.68,0,0,1,5.674,11.347Zm0-11.01A5.337,5.337,0,1,0,11.01,5.674,5.342,5.342,0,0,0,5.674.337Z" transform="translate(57.408 3.023)"/><path class="d" d="M63.082,17.392a8.63,8.63,0,0,1-6.8-3.274,8.694,8.694,0,0,1-13.6,0,8.694,8.694,0,0,1-13.6,0,8.694,8.694,0,0,1-13.6,0A8.7,8.7,0,1,1,8.7,0a8.629,8.629,0,0,1,6.8,3.274,8.695,8.695,0,0,1,13.6,0,8.695,8.695,0,0,1,13.6,0,8.695,8.695,0,0,1,13.6,0,8.7,8.7,0,1,1,6.8,14.118Zm-6.8-3.828.134.177A8.359,8.359,0,1,0,63.082.337,8.3,8.3,0,0,0,56.417,3.65l-.134.177-.134-.177a8.357,8.357,0,0,0-13.327,0l-.134.177-.134-.177a8.358,8.358,0,0,0-13.328,0l-.134.177-.134-.177a8.358,8.358,0,0,0-13.328,0l-.134.177L15.36,3.65A8.359,8.359,0,1,0,8.7,17.055a8.3,8.3,0,0,0,6.664-3.314l.134-.177.134.177a8.357,8.357,0,0,0,13.328,0l.134-.177.134.177a8.357,8.357,0,0,0,13.328,0l.134-.177.134.177a8.357,8.357,0,0,0,13.327,0Z" transform="translate(0 0)"/></g><g transform="matrix(-0.174, 0.985, -0.985, -0.174, 416.505, 2648.961)"><circle class="d" cx="3.948" cy="3.948" r="3.948" transform="translate(4.748 4.748)"/><circle class="d" cx="2.203" cy="2.203" r="2.203" transform="translate(6.494 6.494)"/><path class="d" d="M5.674,11.347a5.674,5.674,0,1,1,5.674-5.674A5.68,5.68,0,0,1,5.674,11.347Zm0-11.01A5.337,5.337,0,1,0,11.01,5.674,5.343,5.343,0,0,0,5.674.337Z" transform="translate(3.023 3.023)"/><circle class="d" cx="3.948" cy="3.948" r="3.948" transform="translate(18.344 4.748)"/><circle class="d" cx="2.203" cy="2.203" r="2.203" transform="translate(20.09 6.494)"/><path class="d" d="M5.674,11.347a5.674,5.674,0,1,1,5.674-5.674A5.68,5.68,0,0,1,5.674,11.347Zm0-11.01A5.337,5.337,0,1,0,11.01,5.674,5.342,5.342,0,0,0,5.674.337Z" transform="translate(16.619 3.023)"/><circle class="d" cx="3.948" cy="3.948" r="3.948" transform="translate(31.941 4.748)"/><circle class="d" cx="2.203" cy="2.203" r="2.203" transform="translate(33.686 6.494)"/><path class="d" d="M5.674,11.347a5.674,5.674,0,1,1,5.674-5.674A5.68,5.68,0,0,1,5.674,11.347Zm0-11.01A5.337,5.337,0,1,0,11.01,5.674,5.343,5.343,0,0,0,5.674.337Z" transform="translate(30.215 3.023)"/><circle class="d" cx="3.948" cy="3.948" r="3.948" transform="translate(45.537 4.748)"/><circle class="d" cx="2.203" cy="2.203" r="2.203" transform="translate(47.283 6.494)"/><path class="d" d="M5.674,11.347a5.674,5.674,0,1,1,5.674-5.674A5.68,5.68,0,0,1,5.674,11.347Zm0-11.01A5.337,5.337,0,1,0,11.01,5.674,5.343,5.343,0,0,0,5.674.337Z" transform="translate(43.812 3.023)"/><circle class="d" cx="3.948" cy="3.948" r="3.948" transform="translate(59.133 4.748)"/><circle class="d" cx="2.203" cy="2.203" r="2.203" transform="translate(60.879 6.494)"/><path class="d" d="M5.674,11.347a5.674,5.674,0,1,1,5.673-5.674A5.68,5.68,0,0,1,5.674,11.347Zm0-11.01A5.337,5.337,0,1,0,11.01,5.674,5.342,5.342,0,0,0,5.674.337Z" transform="translate(57.408 3.023)"/><path class="d" d="M63.082,17.392a8.63,8.63,0,0,1-6.8-3.274,8.694,8.694,0,0,1-13.6,0,8.694,8.694,0,0,1-13.6,0,8.694,8.694,0,0,1-13.6,0A8.7,8.7,0,1,1,8.7,0a8.629,8.629,0,0,1,6.8,3.274,8.695,8.695,0,0,1,13.6,0,8.695,8.695,0,0,1,13.6,0,8.695,8.695,0,0,1,13.6,0,8.7,8.7,0,1,1,6.8,14.118Zm-6.8-3.828.134.177A8.359,8.359,0,1,0,63.082.337,8.3,8.3,0,0,0,56.417,3.65l-.134.177-.134-.177a8.357,8.357,0,0,0-13.327,0l-.134.177-.134-.177a8.358,8.358,0,0,0-13.328,0l-.134.177-.134-.177a8.358,8.358,0,0,0-13.328,0l-.134.177L15.36,3.65A8.359,8.359,0,1,0,8.7,17.055a8.3,8.3,0,0,0,6.664-3.314l.134-.177.134.177a8.357,8.357,0,0,0,13.328,0l.134-.177.134.177a8.357,8.357,0,0,0,13.328,0l.134-.177.134.177a8.357,8.357,0,0,0,13.327,0Z" transform="translate(0 0)"/></g><g transform="translate(395.533 2644.542) rotate(120)"><circle class="d" cx="3.948" cy="3.948" r="3.948" transform="translate(4.748 4.748)"/><circle class="d" cx="2.203" cy="2.203" r="2.203" transform="translate(6.494 6.494)"/><path class="d" d="M5.674,11.347a5.674,5.674,0,1,1,5.674-5.674A5.68,5.68,0,0,1,5.674,11.347Zm0-11.01A5.337,5.337,0,1,0,11.01,5.674,5.343,5.343,0,0,0,5.674.337Z" transform="translate(3.023 3.023)"/><circle class="d" cx="3.948" cy="3.948" r="3.948" transform="translate(18.344 4.748)"/><circle class="d" cx="2.203" cy="2.203" r="2.203" transform="translate(20.09 6.494)"/><path class="d" d="M5.674,11.347a5.674,5.674,0,1,1,5.674-5.674A5.68,5.68,0,0,1,5.674,11.347Zm0-11.01A5.337,5.337,0,1,0,11.01,5.674,5.342,5.342,0,0,0,5.674.337Z" transform="translate(16.619 3.023)"/><circle class="d" cx="3.948" cy="3.948" r="3.948" transform="translate(31.941 4.748)"/><circle class="d" cx="2.203" cy="2.203" r="2.203" transform="translate(33.686 6.494)"/><path class="d" d="M5.674,11.347a5.674,5.674,0,1,1,5.674-5.674A5.68,5.68,0,0,1,5.674,11.347Zm0-11.01A5.337,5.337,0,1,0,11.01,5.674,5.343,5.343,0,0,0,5.674.337Z" transform="translate(30.215 3.023)"/><circle class="d" cx="3.948" cy="3.948" r="3.948" transform="translate(45.537 4.748)"/><circle class="d" cx="2.203" cy="2.203" r="2.203" transform="translate(47.283 6.494)"/><path class="d" d="M5.674,11.347a5.674,5.674,0,1,1,5.674-5.674A5.68,5.68,0,0,1,5.674,11.347Zm0-11.01A5.337,5.337,0,1,0,11.01,5.674,5.343,5.343,0,0,0,5.674.337Z" transform="translate(43.812 3.023)"/><circle class="d" cx="3.948" cy="3.948" r="3.948" transform="translate(59.133 4.748)"/><circle class="d" cx="2.203" cy="2.203" r="2.203" transform="translate(60.879 6.494)"/><path class="d" d="M5.674,11.347a5.674,5.674,0,1,1,5.673-5.674A5.68,5.68,0,0,1,5.674,11.347Zm0-11.01A5.337,5.337,0,1,0,11.01,5.674,5.342,5.342,0,0,0,5.674.337Z" transform="translate(57.408 3.023)"/><path class="d" d="M63.082,17.392a8.63,8.63,0,0,1-6.8-3.274,8.694,8.694,0,0,1-13.6,0,8.694,8.694,0,0,1-13.6,0,8.694,8.694,0,0,1-13.6,0A8.7,8.7,0,1,1,8.7,0a8.629,8.629,0,0,1,6.8,3.274,8.695,8.695,0,0,1,13.6,0,8.695,8.695,0,0,1,13.6,0,8.695,8.695,0,0,1,13.6,0,8.7,8.7,0,1,1,6.8,14.118Zm-6.8-3.828.134.177A8.359,8.359,0,1,0,63.082.337,8.3,8.3,0,0,0,56.417,3.65l-.134.177-.134-.177a8.357,8.357,0,0,0-13.327,0l-.134.177-.134-.177a8.358,8.358,0,0,0-13.328,0l-.134.177-.134-.177a8.358,8.358,0,0,0-13.328,0l-.134.177L15.36,3.65A8.359,8.359,0,1,0,8.7,17.055a8.3,8.3,0,0,0,6.664-3.314l.134-.177.134.177a8.357,8.357,0,0,0,13.328,0l.134-.177.134.177a8.357,8.357,0,0,0,13.328,0l.134-.177.134.177a8.357,8.357,0,0,0,13.327,0Z" transform="translate(0 0)"/></g><g transform="translate(377.336 2633.216) rotate(140)"><circle class="d" cx="3.948" cy="3.948" r="3.948" transform="translate(4.748 4.748)"/><circle class="d" cx="2.203" cy="2.203" r="2.203" transform="translate(6.494 6.494)"/><path class="d" d="M5.674,11.347a5.674,5.674,0,1,1,5.674-5.674A5.68,5.68,0,0,1,5.674,11.347Zm0-11.01A5.337,5.337,0,1,0,11.01,5.674,5.343,5.343,0,0,0,5.674.337Z" transform="translate(3.023 3.023)"/><circle class="d" cx="3.948" cy="3.948" r="3.948" transform="translate(18.344 4.748)"/><circle class="d" cx="2.203" cy="2.203" r="2.203" transform="translate(20.09 6.494)"/><path class="d" d="M5.674,11.347a5.674,5.674,0,1,1,5.674-5.674A5.68,5.68,0,0,1,5.674,11.347Zm0-11.01A5.337,5.337,0,1,0,11.01,5.674,5.342,5.342,0,0,0,5.674.337Z" transform="translate(16.619 3.023)"/><circle class="d" cx="3.948" cy="3.948" r="3.948" transform="translate(31.941 4.748)"/><circle class="d" cx="2.203" cy="2.203" r="2.203" transform="translate(33.686 6.494)"/><path class="d" d="M5.674,11.347a5.674,5.674,0,1,1,5.674-5.674A5.68,5.68,0,0,1,5.674,11.347Zm0-11.01A5.337,5.337,0,1,0,11.01,5.674,5.343,5.343,0,0,0,5.674.337Z" transform="translate(30.215 3.023)"/><circle class="d" cx="3.948" cy="3.948" r="3.948" transform="translate(45.537 4.748)"/><circle class="d" cx="2.203" cy="2.203" r="2.203" transform="translate(47.283 6.494)"/><path class="d" d="M5.674,11.347a5.674,5.674,0,1,1,5.674-5.674A5.68,5.68,0,0,1,5.674,11.347Zm0-11.01A5.337,5.337,0,1,0,11.01,5.674,5.343,5.343,0,0,0,5.674.337Z" transform="translate(43.812 3.023)"/><circle class="d" cx="3.948" cy="3.948" r="3.948" transform="translate(59.133 4.748)"/><circle class="d" cx="2.203" cy="2.203" r="2.203" transform="translate(60.879 6.494)"/><path class="d" d="M5.674,11.347a5.674,5.674,0,1,1,5.673-5.674A5.68,5.68,0,0,1,5.674,11.347Zm0-11.01A5.337,5.337,0,1,0,11.01,5.674,5.342,5.342,0,0,0,5.674.337Z" transform="translate(57.408 3.023)"/><path class="d" d="M63.082,17.392a8.63,8.63,0,0,1-6.8-3.274,8.694,8.694,0,0,1-13.6,0,8.694,8.694,0,0,1-13.6,0,8.694,8.694,0,0,1-13.6,0A8.7,8.7,0,1,1,8.7,0a8.629,8.629,0,0,1,6.8,3.274,8.695,8.695,0,0,1,13.6,0,8.695,8.695,0,0,1,13.6,0,8.695,8.695,0,0,1,13.6,0,8.7,8.7,0,1,1,6.8,14.118Zm-6.8-3.828.134.177A8.359,8.359,0,1,0,63.082.337,8.3,8.3,0,0,0,56.417,3.65l-.134.177-.134-.177a8.357,8.357,0,0,0-13.327,0l-.134.177-.134-.177a8.358,8.358,0,0,0-13.328,0l-.134.177-.134-.177a8.358,8.358,0,0,0-13.328,0l-.134.177L15.36,3.65A8.359,8.359,0,1,0,8.7,17.055a8.3,8.3,0,0,0,6.664-3.314l.134-.177.134.177a8.357,8.357,0,0,0,13.328,0l.134-.177.134.177a8.357,8.357,0,0,0,13.328,0l.134-.177.134.177a8.357,8.357,0,0,0,13.327,0Z" transform="translate(0 0)"/></g><g transform="translate(364.111 2616.349) rotate(160)"><circle class="d" cx="3.948" cy="3.948" r="3.948" transform="translate(4.748 4.748)"/><circle class="d" cx="2.203" cy="2.203" r="2.203" transform="translate(6.494 6.494)"/><path class="d" d="M5.674,11.347a5.674,5.674,0,1,1,5.674-5.674A5.68,5.68,0,0,1,5.674,11.347Zm0-11.01A5.337,5.337,0,1,0,11.01,5.674,5.343,5.343,0,0,0,5.674.337Z" transform="translate(3.023 3.023)"/><circle class="d" cx="3.948" cy="3.948" r="3.948" transform="translate(18.344 4.748)"/><circle class="d" cx="2.203" cy="2.203" r="2.203" transform="translate(20.09 6.494)"/><path class="d" d="M5.674,11.347a5.674,5.674,0,1,1,5.674-5.674A5.68,5.68,0,0,1,5.674,11.347Zm0-11.01A5.337,5.337,0,1,0,11.01,5.674,5.342,5.342,0,0,0,5.674.337Z" transform="translate(16.619 3.023)"/><circle class="d" cx="3.948" cy="3.948" r="3.948" transform="translate(31.941 4.748)"/><circle class="d" cx="2.203" cy="2.203" r="2.203" transform="translate(33.686 6.494)"/><path class="d" d="M5.674,11.347a5.674,5.674,0,1,1,5.674-5.674A5.68,5.68,0,0,1,5.674,11.347Zm0-11.01A5.337,5.337,0,1,0,11.01,5.674,5.343,5.343,0,0,0,5.674.337Z" transform="translate(30.215 3.023)"/><circle class="d" cx="3.948" cy="3.948" r="3.948" transform="translate(45.537 4.748)"/><circle class="d" cx="2.203" cy="2.203" r="2.203" transform="translate(47.283 6.494)"/><path class="d" d="M5.674,11.347a5.674,5.674,0,1,1,5.674-5.674A5.68,5.68,0,0,1,5.674,11.347Zm0-11.01A5.337,5.337,0,1,0,11.01,5.674,5.343,5.343,0,0,0,5.674.337Z" transform="translate(43.812 3.023)"/><circle class="d" cx="3.948" cy="3.948" r="3.948" transform="translate(59.133 4.748)"/><circle class="d" cx="2.203" cy="2.203" r="2.203" transform="translate(60.879 6.494)"/><path class="d" d="M5.674,11.347a5.674,5.674,0,1,1,5.673-5.674A5.68,5.68,0,0,1,5.674,11.347Zm0-11.01A5.337,5.337,0,1,0,11.01,5.674,5.342,5.342,0,0,0,5.674.337Z" transform="translate(57.408 3.023)"/><path class="d" d="M63.082,17.392a8.63,8.63,0,0,1-6.8-3.274,8.694,8.694,0,0,1-13.6,0,8.694,8.694,0,0,1-13.6,0,8.694,8.694,0,0,1-13.6,0A8.7,8.7,0,1,1,8.7,0a8.629,8.629,0,0,1,6.8,3.274,8.695,8.695,0,0,1,13.6,0,8.695,8.695,0,0,1,13.6,0,8.695,8.695,0,0,1,13.6,0,8.7,8.7,0,1,1,6.8,14.118Zm-6.8-3.828.134.177A8.359,8.359,0,1,0,63.082.337,8.3,8.3,0,0,0,56.417,3.65l-.134.177-.134-.177a8.357,8.357,0,0,0-13.327,0l-.134.177-.134-.177a8.358,8.358,0,0,0-13.328,0l-.134.177-.134-.177a8.358,8.358,0,0,0-13.328,0l-.134.177L15.36,3.65A8.359,8.359,0,1,0,8.7,17.055a8.3,8.3,0,0,0,6.664-3.314l.134-.177.134.177a8.357,8.357,0,0,0,13.328,0l.134-.177.134.177a8.357,8.357,0,0,0,13.328,0l.134-.177.134.177a8.357,8.357,0,0,0,13.327,0Z" transform="translate(0 0)"/></g><g transform="translate(357.452 2595.977) rotate(180)"><circle class="d" cx="3.948" cy="3.948" r="3.948" transform="translate(4.748 4.748)"/><circle class="d" cx="2.203" cy="2.203" r="2.203" transform="translate(6.494 6.494)"/><path class="d" d="M5.674,11.347a5.674,5.674,0,1,1,5.674-5.674A5.68,5.68,0,0,1,5.674,11.347Zm0-11.01A5.337,5.337,0,1,0,11.01,5.674,5.343,5.343,0,0,0,5.674.337Z" transform="translate(3.023 3.023)"/><circle class="d" cx="3.948" cy="3.948" r="3.948" transform="translate(18.344 4.748)"/><circle class="d" cx="2.203" cy="2.203" r="2.203" transform="translate(20.09 6.494)"/><path class="d" d="M5.674,11.347a5.674,5.674,0,1,1,5.674-5.674A5.68,5.68,0,0,1,5.674,11.347Zm0-11.01A5.337,5.337,0,1,0,11.01,5.674,5.342,5.342,0,0,0,5.674.337Z" transform="translate(16.619 3.023)"/><circle class="d" cx="3.948" cy="3.948" r="3.948" transform="translate(31.941 4.748)"/><circle class="d" cx="2.203" cy="2.203" r="2.203" transform="translate(33.686 6.494)"/><path class="d" d="M5.674,11.347a5.674,5.674,0,1,1,5.674-5.674A5.68,5.68,0,0,1,5.674,11.347Zm0-11.01A5.337,5.337,0,1,0,11.01,5.674,5.343,5.343,0,0,0,5.674.337Z" transform="translate(30.215 3.023)"/><circle class="d" cx="3.948" cy="3.948" r="3.948" transform="translate(45.537 4.748)"/><circle class="d" cx="2.203" cy="2.203" r="2.203" transform="translate(47.283 6.494)"/><path class="d" d="M5.674,11.347a5.674,5.674,0,1,1,5.674-5.674A5.68,5.68,0,0,1,5.674,11.347Zm0-11.01A5.337,5.337,0,1,0,11.01,5.674,5.343,5.343,0,0,0,5.674.337Z" transform="translate(43.812 3.023)"/><circle class="d" cx="3.948" cy="3.948" r="3.948" transform="translate(59.133 4.748)"/><circle class="d" cx="2.203" cy="2.203" r="2.203" transform="translate(60.879 6.494)"/><path class="d" d="M5.674,11.347a5.674,5.674,0,1,1,5.673-5.674A5.68,5.68,0,0,1,5.674,11.347Zm0-11.01A5.337,5.337,0,1,0,11.01,5.674,5.342,5.342,0,0,0,5.674.337Z" transform="translate(57.408 3.023)"/><path class="d" d="M63.082,17.392a8.63,8.63,0,0,1-6.8-3.274,8.694,8.694,0,0,1-13.6,0,8.694,8.694,0,0,1-13.6,0,8.694,8.694,0,0,1-13.6,0A8.7,8.7,0,1,1,8.7,0a8.629,8.629,0,0,1,6.8,3.274,8.695,8.695,0,0,1,13.6,0,8.695,8.695,0,0,1,13.6,0,8.695,8.695,0,0,1,13.6,0,8.7,8.7,0,1,1,6.8,14.118Zm-6.8-3.828.134.177A8.359,8.359,0,1,0,63.082.337,8.3,8.3,0,0,0,56.417,3.65l-.134.177-.134-.177a8.357,8.357,0,0,0-13.327,0l-.134.177-.134-.177a8.358,8.358,0,0,0-13.328,0l-.134.177-.134-.177a8.358,8.358,0,0,0-13.328,0l-.134.177L15.36,3.65A8.359,8.359,0,1,0,8.7,17.055a8.3,8.3,0,0,0,6.664-3.314l.134-.177.134.177a8.357,8.357,0,0,0,13.328,0l.134-.177.134.177a8.357,8.357,0,0,0,13.328,0l.134-.177.134.177a8.357,8.357,0,0,0,13.327,0Z" transform="translate(0)"/></g><g transform="translate(358.163 2574.556) rotate(-160)"><circle class="d" cx="3.948" cy="3.948" r="3.948" transform="translate(4.748 4.748)"/><circle class="d" cx="2.203" cy="2.203" r="2.203" transform="translate(6.494 6.494)"/><path class="d" d="M5.674,11.347a5.674,5.674,0,1,1,5.674-5.674A5.68,5.68,0,0,1,5.674,11.347Zm0-11.01A5.337,5.337,0,1,0,11.01,5.674,5.343,5.343,0,0,0,5.674.337Z" transform="translate(3.023 3.023)"/><circle class="d" cx="3.948" cy="3.948" r="3.948" transform="translate(18.344 4.748)"/><circle class="d" cx="2.203" cy="2.203" r="2.203" transform="translate(20.09 6.494)"/><path class="d" d="M5.674,11.347a5.674,5.674,0,1,1,5.674-5.674A5.68,5.68,0,0,1,5.674,11.347Zm0-11.01A5.337,5.337,0,1,0,11.01,5.674,5.342,5.342,0,0,0,5.674.337Z" transform="translate(16.619 3.023)"/><circle class="d" cx="3.948" cy="3.948" r="3.948" transform="translate(31.941 4.748)"/><circle class="d" cx="2.203" cy="2.203" r="2.203" transform="translate(33.686 6.494)"/><path class="d" d="M5.674,11.347a5.674,5.674,0,1,1,5.674-5.674A5.68,5.68,0,0,1,5.674,11.347Zm0-11.01A5.337,5.337,0,1,0,11.01,5.674,5.343,5.343,0,0,0,5.674.337Z" transform="translate(30.215 3.023)"/><circle class="d" cx="3.948" cy="3.948" r="3.948" transform="translate(45.537 4.748)"/><circle class="d" cx="2.203" cy="2.203" r="2.203" transform="translate(47.283 6.494)"/><path class="d" d="M5.674,11.347a5.674,5.674,0,1,1,5.674-5.674A5.68,5.68,0,0,1,5.674,11.347Zm0-11.01A5.337,5.337,0,1,0,11.01,5.674,5.343,5.343,0,0,0,5.674.337Z" transform="translate(43.812 3.023)"/><circle class="d" cx="3.948" cy="3.948" r="3.948" transform="translate(59.133 4.748)"/><circle class="d" cx="2.203" cy="2.203" r="2.203" transform="translate(60.879 6.494)"/><path class="d" d="M5.674,11.347a5.674,5.674,0,1,1,5.673-5.674A5.68,5.68,0,0,1,5.674,11.347Zm0-11.01A5.337,5.337,0,1,0,11.01,5.674,5.342,5.342,0,0,0,5.674.337Z" transform="translate(57.408 3.023)"/><path class="d" d="M63.082,17.392a8.63,8.63,0,0,1-6.8-3.274,8.694,8.694,0,0,1-13.6,0,8.694,8.694,0,0,1-13.6,0,8.694,8.694,0,0,1-13.6,0A8.7,8.7,0,1,1,8.7,0a8.629,8.629,0,0,1,6.8,3.274,8.695,8.695,0,0,1,13.6,0,8.695,8.695,0,0,1,13.6,0,8.695,8.695,0,0,1,13.6,0,8.7,8.7,0,1,1,6.8,14.118Zm-6.8-3.828.134.177A8.359,8.359,0,1,0,63.082.337,8.3,8.3,0,0,0,56.417,3.65l-.134.177-.134-.177a8.357,8.357,0,0,0-13.327,0l-.134.177-.134-.177a8.358,8.358,0,0,0-13.328,0l-.134.177-.134-.177a8.358,8.358,0,0,0-13.328,0l-.134.177L15.36,3.65A8.359,8.359,0,1,0,8.7,17.055a8.3,8.3,0,0,0,6.664-3.314l.134-.177.134.177a8.357,8.357,0,0,0,13.328,0l.134-.177.134.177a8.357,8.357,0,0,0,13.328,0l.134-.177.134.177a8.357,8.357,0,0,0,13.327,0Z" transform="translate(0 0)"/></g><g transform="translate(366.157 2554.669) rotate(-140)"><circle class="d" cx="3.948" cy="3.948" r="3.948" transform="translate(4.748 4.748)"/><circle class="d" cx="2.203" cy="2.203" r="2.203" transform="translate(6.494 6.494)"/><path class="d" d="M5.674,11.347a5.674,5.674,0,1,1,5.674-5.674A5.68,5.68,0,0,1,5.674,11.347Zm0-11.01A5.337,5.337,0,1,0,11.01,5.674,5.343,5.343,0,0,0,5.674.337Z" transform="translate(3.023 3.023)"/><circle class="d" cx="3.948" cy="3.948" r="3.948" transform="translate(18.344 4.748)"/><circle class="d" cx="2.203" cy="2.203" r="2.203" transform="translate(20.09 6.494)"/><path class="d" d="M5.674,11.347a5.674,5.674,0,1,1,5.674-5.674A5.68,5.68,0,0,1,5.674,11.347Zm0-11.01A5.337,5.337,0,1,0,11.01,5.674,5.342,5.342,0,0,0,5.674.337Z" transform="translate(16.619 3.023)"/><circle class="d" cx="3.948" cy="3.948" r="3.948" transform="translate(31.941 4.748)"/><circle class="d" cx="2.203" cy="2.203" r="2.203" transform="translate(33.686 6.494)"/><path class="d" d="M5.674,11.347a5.674,5.674,0,1,1,5.674-5.674A5.68,5.68,0,0,1,5.674,11.347Zm0-11.01A5.337,5.337,0,1,0,11.01,5.674,5.343,5.343,0,0,0,5.674.337Z" transform="translate(30.215 3.023)"/><circle class="d" cx="3.948" cy="3.948" r="3.948" transform="translate(45.537 4.748)"/><circle class="d" cx="2.203" cy="2.203" r="2.203" transform="translate(47.283 6.494)"/><path class="d" d="M5.674,11.347a5.674,5.674,0,1,1,5.674-5.674A5.68,5.68,0,0,1,5.674,11.347Zm0-11.01A5.337,5.337,0,1,0,11.01,5.674,5.343,5.343,0,0,0,5.674.337Z" transform="translate(43.812 3.023)"/><circle class="d" cx="3.948" cy="3.948" r="3.948" transform="translate(59.133 4.748)"/><circle class="d" cx="2.203" cy="2.203" r="2.203" transform="translate(60.879 6.494)"/><path class="d" d="M5.674,11.347a5.674,5.674,0,1,1,5.673-5.674A5.68,5.68,0,0,1,5.674,11.347Zm0-11.01A5.337,5.337,0,1,0,11.01,5.674,5.342,5.342,0,0,0,5.674.337Z" transform="translate(57.408 3.023)"/><path class="d" d="M63.082,17.392a8.63,8.63,0,0,1-6.8-3.274,8.694,8.694,0,0,1-13.6,0,8.694,8.694,0,0,1-13.6,0,8.694,8.694,0,0,1-13.6,0A8.7,8.7,0,1,1,8.7,0a8.629,8.629,0,0,1,6.8,3.274,8.695,8.695,0,0,1,13.6,0,8.695,8.695,0,0,1,13.6,0,8.695,8.695,0,0,1,13.6,0,8.7,8.7,0,1,1,6.8,14.118Zm-6.8-3.828.134.177A8.359,8.359,0,1,0,63.082.337,8.3,8.3,0,0,0,56.417,3.65l-.134.177-.134-.177a8.357,8.357,0,0,0-13.327,0l-.134.177-.134-.177a8.358,8.358,0,0,0-13.328,0l-.134.177-.134-.177a8.358,8.358,0,0,0-13.328,0l-.134.177L15.36,3.65A8.359,8.359,0,1,0,8.7,17.055a8.3,8.3,0,0,0,6.664-3.314l.134-.177.134.177a8.357,8.357,0,0,0,13.328,0l.134-.177.134.177a8.357,8.357,0,0,0,13.328,0l.134-.177.134.177a8.357,8.357,0,0,0,13.327,0Z" transform="translate(0 0)"/></g><g transform="translate(380.47 2538.716) rotate(-120)"><circle class="d" cx="3.948" cy="3.948" r="3.948" transform="translate(4.748 4.748)"/><circle class="d" cx="2.203" cy="2.203" r="2.203" transform="translate(6.494 6.494)"/><path class="d" d="M5.674,11.347a5.674,5.674,0,1,1,5.674-5.674A5.68,5.68,0,0,1,5.674,11.347Zm0-11.01A5.337,5.337,0,1,0,11.01,5.674,5.343,5.343,0,0,0,5.674.337Z" transform="translate(3.023 3.023)"/><circle class="d" cx="3.948" cy="3.948" r="3.948" transform="translate(18.344 4.748)"/><circle class="d" cx="2.203" cy="2.203" r="2.203" transform="translate(20.09 6.494)"/><path class="d" d="M5.674,11.347a5.674,5.674,0,1,1,5.674-5.674A5.68,5.68,0,0,1,5.674,11.347Zm0-11.01A5.337,5.337,0,1,0,11.01,5.674,5.342,5.342,0,0,0,5.674.337Z" transform="translate(16.619 3.023)"/><circle class="d" cx="3.948" cy="3.948" r="3.948" transform="translate(31.941 4.748)"/><circle class="d" cx="2.203" cy="2.203" r="2.203" transform="translate(33.686 6.494)"/><path class="d" d="M5.674,11.347a5.674,5.674,0,1,1,5.674-5.674A5.68,5.68,0,0,1,5.674,11.347Zm0-11.01A5.337,5.337,0,1,0,11.01,5.674,5.343,5.343,0,0,0,5.674.337Z" transform="translate(30.215 3.023)"/><circle class="d" cx="3.948" cy="3.948" r="3.948" transform="translate(45.537 4.748)"/><circle class="d" cx="2.203" cy="2.203" r="2.203" transform="translate(47.283 6.494)"/><path class="d" d="M5.674,11.347a5.674,5.674,0,1,1,5.674-5.674A5.68,5.68,0,0,1,5.674,11.347Zm0-11.01A5.337,5.337,0,1,0,11.01,5.674,5.343,5.343,0,0,0,5.674.337Z" transform="translate(43.812 3.023)"/><circle class="d" cx="3.948" cy="3.948" r="3.948" transform="translate(59.133 4.748)"/><circle class="d" cx="2.203" cy="2.203" r="2.203" transform="translate(60.879 6.494)"/><path class="d" d="M5.674,11.347a5.674,5.674,0,1,1,5.673-5.674A5.68,5.68,0,0,1,5.674,11.347Zm0-11.01A5.337,5.337,0,1,0,11.01,5.674,5.342,5.342,0,0,0,5.674.337Z" transform="translate(57.408 3.023)"/><path class="d" d="M63.082,17.392a8.63,8.63,0,0,1-6.8-3.274,8.694,8.694,0,0,1-13.6,0,8.694,8.694,0,0,1-13.6,0,8.694,8.694,0,0,1-13.6,0A8.7,8.7,0,1,1,8.7,0a8.629,8.629,0,0,1,6.8,3.274,8.695,8.695,0,0,1,13.6,0,8.695,8.695,0,0,1,13.6,0,8.695,8.695,0,0,1,13.6,0,8.7,8.7,0,1,1,6.8,14.118Zm-6.8-3.828.134.177A8.359,8.359,0,1,0,63.082.337,8.3,8.3,0,0,0,56.417,3.65l-.134.177-.134-.177a8.357,8.357,0,0,0-13.327,0l-.134.177-.134-.177a8.358,8.358,0,0,0-13.328,0l-.134.177-.134-.177a8.358,8.358,0,0,0-13.328,0l-.134.177L15.36,3.65A8.359,8.359,0,1,0,8.7,17.055a8.3,8.3,0,0,0,6.664-3.314l.134-.177.134.177a8.357,8.357,0,0,0,13.328,0l.134-.177.134.177a8.357,8.357,0,0,0,13.328,0l.134-.177.134.177a8.357,8.357,0,0,0,13.327,0Z" transform="translate(0 0)"/></g><g transform="matrix(-0.174, -0.985, 0.985, -0.174, 399.377, 2528.621)"><circle class="d" cx="3.948" cy="3.948" r="3.948" transform="translate(4.748 4.748)"/><circle class="d" cx="2.203" cy="2.203" r="2.203" transform="translate(6.494 6.494)"/><path class="d" d="M5.674,11.347a5.674,5.674,0,1,1,5.674-5.674A5.68,5.68,0,0,1,5.674,11.347Zm0-11.01A5.337,5.337,0,1,0,11.01,5.674,5.343,5.343,0,0,0,5.674.337Z" transform="translate(3.023 3.023)"/><circle class="d" cx="3.948" cy="3.948" r="3.948" transform="translate(18.344 4.748)"/><circle class="d" cx="2.203" cy="2.203" r="2.203" transform="translate(20.09 6.494)"/><path class="d" d="M5.674,11.347a5.674,5.674,0,1,1,5.674-5.674A5.68,5.68,0,0,1,5.674,11.347Zm0-11.01A5.337,5.337,0,1,0,11.01,5.674,5.342,5.342,0,0,0,5.674.337Z" transform="translate(16.619 3.023)"/><circle class="d" cx="3.948" cy="3.948" r="3.948" transform="translate(31.941 4.748)"/><circle class="d" cx="2.203" cy="2.203" r="2.203" transform="translate(33.686 6.494)"/><path class="d" d="M5.674,11.347a5.674,5.674,0,1,1,5.674-5.674A5.68,5.68,0,0,1,5.674,11.347Zm0-11.01A5.337,5.337,0,1,0,11.01,5.674,5.343,5.343,0,0,0,5.674.337Z" transform="translate(30.215 3.023)"/><circle class="d" cx="3.948" cy="3.948" r="3.948" transform="translate(45.537 4.748)"/><circle class="d" cx="2.203" cy="2.203" r="2.203" transform="translate(47.283 6.494)"/><path class="d" d="M5.674,11.347a5.674,5.674,0,1,1,5.674-5.674A5.68,5.68,0,0,1,5.674,11.347Zm0-11.01A5.337,5.337,0,1,0,11.01,5.674,5.343,5.343,0,0,0,5.674.337Z" transform="translate(43.812 3.023)"/><circle class="d" cx="3.948" cy="3.948" r="3.948" transform="translate(59.133 4.748)"/><circle class="d" cx="2.203" cy="2.203" r="2.203" transform="translate(60.879 6.494)"/><path class="d" d="M5.674,11.347a5.674,5.674,0,1,1,5.673-5.674A5.68,5.68,0,0,1,5.674,11.347Zm0-11.01A5.337,5.337,0,1,0,11.01,5.674,5.342,5.342,0,0,0,5.674.337Z" transform="translate(57.408 3.023)"/><path class="d" d="M63.082,17.392a8.63,8.63,0,0,1-6.8-3.274,8.694,8.694,0,0,1-13.6,0,8.694,8.694,0,0,1-13.6,0,8.694,8.694,0,0,1-13.6,0A8.7,8.7,0,1,1,8.7,0a8.629,8.629,0,0,1,6.8,3.274,8.695,8.695,0,0,1,13.6,0,8.695,8.695,0,0,1,13.6,0,8.695,8.695,0,0,1,13.6,0,8.7,8.7,0,1,1,6.8,14.118Zm-6.8-3.828.134.177A8.359,8.359,0,1,0,63.082.337,8.3,8.3,0,0,0,56.417,3.65l-.134.177-.134-.177a8.357,8.357,0,0,0-13.327,0l-.134.177-.134-.177a8.358,8.358,0,0,0-13.328,0l-.134.177-.134-.177a8.358,8.358,0,0,0-13.328,0l-.134.177L15.36,3.65A8.359,8.359,0,1,0,8.7,17.055a8.3,8.3,0,0,0,6.664-3.314l.134-.177.134.177a8.357,8.357,0,0,0,13.328,0l.134-.177.134.177a8.357,8.357,0,0,0,13.328,0l.134-.177.134.177a8.357,8.357,0,0,0,13.327,0Z" transform="translate(0 0)"/></g><g transform="matrix(0.174, -0.985, 0.985, 0.174, 420.596, 2525.601)"><circle class="d" cx="3.948" cy="3.948" r="3.948" transform="translate(4.748 4.748)"/><circle class="d" cx="2.203" cy="2.203" r="2.203" transform="translate(6.494 6.494)"/><path class="d" d="M5.674,11.347a5.674,5.674,0,1,1,5.674-5.674A5.68,5.68,0,0,1,5.674,11.347Zm0-11.01A5.337,5.337,0,1,0,11.01,5.674,5.343,5.343,0,0,0,5.674.337Z" transform="translate(3.023 3.023)"/><circle class="d" cx="3.948" cy="3.948" r="3.948" transform="translate(18.344 4.748)"/><circle class="d" cx="2.203" cy="2.203" r="2.203" transform="translate(20.09 6.494)"/><path class="d" d="M5.674,11.347a5.674,5.674,0,1,1,5.674-5.674A5.68,5.68,0,0,1,5.674,11.347Zm0-11.01A5.337,5.337,0,1,0,11.01,5.674,5.342,5.342,0,0,0,5.674.337Z" transform="translate(16.619 3.023)"/><circle class="d" cx="3.948" cy="3.948" r="3.948" transform="translate(31.941 4.748)"/><circle class="d" cx="2.203" cy="2.203" r="2.203" transform="translate(33.686 6.494)"/><path class="d" d="M5.674,11.347a5.674,5.674,0,1,1,5.674-5.674A5.68,5.68,0,0,1,5.674,11.347Zm0-11.01A5.337,5.337,0,1,0,11.01,5.674,5.343,5.343,0,0,0,5.674.337Z" transform="translate(30.215 3.023)"/><circle class="d" cx="3.948" cy="3.948" r="3.948" transform="translate(45.537 4.748)"/><circle class="d" cx="2.203" cy="2.203" r="2.203" transform="translate(47.283 6.494)"/><path class="d" d="M5.674,11.347a5.674,5.674,0,1,1,5.674-5.674A5.68,5.68,0,0,1,5.674,11.347Zm0-11.01A5.337,5.337,0,1,0,11.01,5.674,5.343,5.343,0,0,0,5.674.337Z" transform="translate(43.812 3.023)"/><circle class="d" cx="3.948" cy="3.948" r="3.948" transform="translate(59.133 4.748)"/><circle class="d" cx="2.203" cy="2.203" r="2.203" transform="translate(60.879 6.494)"/><path class="d" d="M5.674,11.347a5.674,5.674,0,1,1,5.673-5.674A5.68,5.68,0,0,1,5.674,11.347Zm0-11.01A5.337,5.337,0,1,0,11.01,5.674,5.342,5.342,0,0,0,5.674.337Z" transform="translate(57.408 3.023)"/><path class="d" d="M63.082,17.392a8.63,8.63,0,0,1-6.8-3.274,8.694,8.694,0,0,1-13.6,0,8.694,8.694,0,0,1-13.6,0,8.694,8.694,0,0,1-13.6,0A8.7,8.7,0,1,1,8.7,0a8.629,8.629,0,0,1,6.8,3.274,8.695,8.695,0,0,1,13.6,0,8.695,8.695,0,0,1,13.6,0,8.695,8.695,0,0,1,13.6,0,8.7,8.7,0,1,1,6.8,14.118Zm-6.8-3.828.134.177A8.359,8.359,0,1,0,63.082.337,8.3,8.3,0,0,0,56.417,3.65l-.134.177-.134-.177a8.357,8.357,0,0,0-13.327,0l-.134.177-.134-.177a8.358,8.358,0,0,0-13.328,0l-.134.177-.134-.177a8.358,8.358,0,0,0-13.328,0l-.134.177L15.36,3.65A8.359,8.359,0,1,0,8.7,17.055a8.3,8.3,0,0,0,6.664-3.314l.134-.177.134.177a8.357,8.357,0,0,0,13.328,0l.134-.177.134.177a8.357,8.357,0,0,0,13.328,0l.134-.177.134.177a8.357,8.357,0,0,0,13.327,0Z" transform="translate(0 0)"/></g><g transform="translate(441.569 2530.02) rotate(-60)"><circle class="d" cx="3.948" cy="3.948" r="3.948" transform="translate(4.748 4.748)"/><circle class="d" cx="2.203" cy="2.203" r="2.203" transform="translate(6.494 6.494)"/><path class="d" d="M5.674,11.347a5.674,5.674,0,1,1,5.674-5.674A5.68,5.68,0,0,1,5.674,11.347Zm0-11.01A5.337,5.337,0,1,0,11.01,5.674,5.343,5.343,0,0,0,5.674.337Z" transform="translate(3.023 3.023)"/><circle class="d" cx="3.948" cy="3.948" r="3.948" transform="translate(18.344 4.748)"/><circle class="d" cx="2.203" cy="2.203" r="2.203" transform="translate(20.09 6.494)"/><path class="d" d="M5.674,11.347a5.674,5.674,0,1,1,5.674-5.674A5.68,5.68,0,0,1,5.674,11.347Zm0-11.01A5.337,5.337,0,1,0,11.01,5.674,5.342,5.342,0,0,0,5.674.337Z" transform="translate(16.619 3.023)"/><circle class="d" cx="3.948" cy="3.948" r="3.948" transform="translate(31.941 4.748)"/><circle class="d" cx="2.203" cy="2.203" r="2.203" transform="translate(33.686 6.494)"/><path class="d" d="M5.674,11.347a5.674,5.674,0,1,1,5.674-5.674A5.68,5.68,0,0,1,5.674,11.347Zm0-11.01A5.337,5.337,0,1,0,11.01,5.674,5.343,5.343,0,0,0,5.674.337Z" transform="translate(30.215 3.023)"/><circle class="d" cx="3.948" cy="3.948" r="3.948" transform="translate(45.537 4.748)"/><circle class="d" cx="2.203" cy="2.203" r="2.203" transform="translate(47.283 6.494)"/><path class="d" d="M5.674,11.347a5.674,5.674,0,1,1,5.674-5.674A5.68,5.68,0,0,1,5.674,11.347Zm0-11.01A5.337,5.337,0,1,0,11.01,5.674,5.343,5.343,0,0,0,5.674.337Z" transform="translate(43.812 3.023)"/><circle class="d" cx="3.948" cy="3.948" r="3.948" transform="translate(59.133 4.748)"/><circle class="d" cx="2.203" cy="2.203" r="2.203" transform="translate(60.879 6.494)"/><path class="d" d="M5.674,11.347a5.674,5.674,0,1,1,5.673-5.674A5.68,5.68,0,0,1,5.674,11.347Zm0-11.01A5.337,5.337,0,1,0,11.01,5.674,5.342,5.342,0,0,0,5.674.337Z" transform="translate(57.408 3.023)"/><path class="d" d="M63.082,17.392a8.63,8.63,0,0,1-6.8-3.274,8.694,8.694,0,0,1-13.6,0,8.694,8.694,0,0,1-13.6,0,8.694,8.694,0,0,1-13.6,0A8.7,8.7,0,1,1,8.7,0a8.629,8.629,0,0,1,6.8,3.274,8.695,8.695,0,0,1,13.6,0,8.695,8.695,0,0,1,13.6,0,8.695,8.695,0,0,1,13.6,0,8.7,8.7,0,1,1,6.8,14.118Zm-6.8-3.828.134.177A8.359,8.359,0,1,0,63.082.337,8.3,8.3,0,0,0,56.417,3.65l-.134.177-.134-.177a8.357,8.357,0,0,0-13.327,0l-.134.177-.134-.177a8.358,8.358,0,0,0-13.328,0l-.134.177-.134-.177a8.358,8.358,0,0,0-13.328,0l-.134.177L15.36,3.65A8.359,8.359,0,1,0,8.7,17.055a8.3,8.3,0,0,0,6.664-3.314l.134-.177.134.177a8.357,8.357,0,0,0,13.328,0l.134-.177.134.177a8.357,8.357,0,0,0,13.328,0l.134-.177.134.177a8.357,8.357,0,0,0,13.327,0Z" transform="translate(0 0)"/></g><g transform="translate(459.765 2541.345) rotate(-40)"><circle class="d" cx="3.948" cy="3.948" r="3.948" transform="translate(4.748 4.748)"/><circle class="d" cx="2.203" cy="2.203" r="2.203" transform="translate(6.494 6.494)"/><path class="d" d="M5.674,11.347a5.674,5.674,0,1,1,5.674-5.674A5.68,5.68,0,0,1,5.674,11.347Zm0-11.01A5.337,5.337,0,1,0,11.01,5.674,5.343,5.343,0,0,0,5.674.337Z" transform="translate(3.023 3.023)"/><circle class="d" cx="3.948" cy="3.948" r="3.948" transform="translate(18.344 4.748)"/><circle class="d" cx="2.203" cy="2.203" r="2.203" transform="translate(20.09 6.494)"/><path class="d" d="M5.674,11.347a5.674,5.674,0,1,1,5.674-5.674A5.68,5.68,0,0,1,5.674,11.347Zm0-11.01A5.337,5.337,0,1,0,11.01,5.674,5.342,5.342,0,0,0,5.674.337Z" transform="translate(16.619 3.023)"/><circle class="d" cx="3.948" cy="3.948" r="3.948" transform="translate(31.941 4.748)"/><circle class="d" cx="2.203" cy="2.203" r="2.203" transform="translate(33.686 6.494)"/><path class="d" d="M5.674,11.347a5.674,5.674,0,1,1,5.674-5.674A5.68,5.68,0,0,1,5.674,11.347Zm0-11.01A5.337,5.337,0,1,0,11.01,5.674,5.343,5.343,0,0,0,5.674.337Z" transform="translate(30.215 3.023)"/><circle class="d" cx="3.948" cy="3.948" r="3.948" transform="translate(45.537 4.748)"/><circle class="d" cx="2.203" cy="2.203" r="2.203" transform="translate(47.283 6.494)"/><path class="d" d="M5.674,11.347a5.674,5.674,0,1,1,5.674-5.674A5.68,5.68,0,0,1,5.674,11.347Zm0-11.01A5.337,5.337,0,1,0,11.01,5.674,5.343,5.343,0,0,0,5.674.337Z" transform="translate(43.812 3.023)"/><circle class="d" cx="3.948" cy="3.948" r="3.948" transform="translate(59.133 4.748)"/><circle class="d" cx="2.203" cy="2.203" r="2.203" transform="translate(60.879 6.494)"/><path class="d" d="M5.674,11.347a5.674,5.674,0,1,1,5.673-5.674A5.68,5.68,0,0,1,5.674,11.347Zm0-11.01A5.337,5.337,0,1,0,11.01,5.674,5.342,5.342,0,0,0,5.674.337Z" transform="translate(57.408 3.023)"/><path class="d" d="M63.082,17.392a8.63,8.63,0,0,1-6.8-3.274,8.694,8.694,0,0,1-13.6,0,8.694,8.694,0,0,1-13.6,0,8.694,8.694,0,0,1-13.6,0A8.7,8.7,0,1,1,8.7,0a8.629,8.629,0,0,1,6.8,3.274,8.695,8.695,0,0,1,13.6,0,8.695,8.695,0,0,1,13.6,0,8.695,8.695,0,0,1,13.6,0,8.7,8.7,0,1,1,6.8,14.118Zm-6.8-3.828.134.177A8.359,8.359,0,1,0,63.082.337,8.3,8.3,0,0,0,56.417,3.65l-.134.177-.134-.177a8.357,8.357,0,0,0-13.327,0l-.134.177-.134-.177a8.358,8.358,0,0,0-13.328,0l-.134.177-.134-.177a8.358,8.358,0,0,0-13.328,0l-.134.177L15.36,3.65A8.359,8.359,0,1,0,8.7,17.055a8.3,8.3,0,0,0,6.664-3.314l.134-.177.134.177a8.357,8.357,0,0,0,13.328,0l.134-.177.134.177a8.357,8.357,0,0,0,13.328,0l.134-.177.134.177a8.357,8.357,0,0,0,13.327,0Z" transform="translate(0 0)"/></g><g transform="translate(472.99 2558.212) rotate(-20)"><circle class="d" cx="3.948" cy="3.948" r="3.948" transform="translate(4.748 4.748)"/><circle class="d" cx="2.203" cy="2.203" r="2.203" transform="translate(6.494 6.494)"/><path class="d" d="M5.674,11.347a5.674,5.674,0,1,1,5.674-5.674A5.68,5.68,0,0,1,5.674,11.347Zm0-11.01A5.337,5.337,0,1,0,11.01,5.674,5.343,5.343,0,0,0,5.674.337Z" transform="translate(3.023 3.023)"/><circle class="d" cx="3.948" cy="3.948" r="3.948" transform="translate(18.344 4.748)"/><circle class="d" cx="2.203" cy="2.203" r="2.203" transform="translate(20.09 6.494)"/><path class="d" d="M5.674,11.347a5.674,5.674,0,1,1,5.674-5.674A5.68,5.68,0,0,1,5.674,11.347Zm0-11.01A5.337,5.337,0,1,0,11.01,5.674,5.342,5.342,0,0,0,5.674.337Z" transform="translate(16.619 3.023)"/><circle class="d" cx="3.948" cy="3.948" r="3.948" transform="translate(31.941 4.748)"/><circle class="d" cx="2.203" cy="2.203" r="2.203" transform="translate(33.686 6.494)"/><path class="d" d="M5.674,11.347a5.674,5.674,0,1,1,5.674-5.674A5.68,5.68,0,0,1,5.674,11.347Zm0-11.01A5.337,5.337,0,1,0,11.01,5.674,5.343,5.343,0,0,0,5.674.337Z" transform="translate(30.215 3.023)"/><circle class="d" cx="3.948" cy="3.948" r="3.948" transform="translate(45.537 4.748)"/><circle class="d" cx="2.203" cy="2.203" r="2.203" transform="translate(47.283 6.494)"/><path class="d" d="M5.674,11.347a5.674,5.674,0,1,1,5.674-5.674A5.68,5.68,0,0,1,5.674,11.347Zm0-11.01A5.337,5.337,0,1,0,11.01,5.674,5.343,5.343,0,0,0,5.674.337Z" transform="translate(43.812 3.023)"/><circle class="d" cx="3.948" cy="3.948" r="3.948" transform="translate(59.133 4.748)"/><circle class="d" cx="2.203" cy="2.203" r="2.203" transform="translate(60.879 6.494)"/><path class="d" d="M5.674,11.347a5.674,5.674,0,1,1,5.673-5.674A5.68,5.68,0,0,1,5.674,11.347Zm0-11.01A5.337,5.337,0,1,0,11.01,5.674,5.342,5.342,0,0,0,5.674.337Z" transform="translate(57.408 3.023)"/><path class="d" d="M63.082,17.392a8.63,8.63,0,0,1-6.8-3.274,8.694,8.694,0,0,1-13.6,0,8.694,8.694,0,0,1-13.6,0,8.694,8.694,0,0,1-13.6,0A8.7,8.7,0,1,1,8.7,0a8.629,8.629,0,0,1,6.8,3.274,8.695,8.695,0,0,1,13.6,0,8.695,8.695,0,0,1,13.6,0,8.695,8.695,0,0,1,13.6,0,8.7,8.7,0,1,1,6.8,14.118Zm-6.8-3.828.134.177A8.359,8.359,0,1,0,63.082.337,8.3,8.3,0,0,0,56.417,3.65l-.134.177-.134-.177a8.357,8.357,0,0,0-13.327,0l-.134.177-.134-.177a8.358,8.358,0,0,0-13.328,0l-.134.177-.134-.177a8.358,8.358,0,0,0-13.328,0l-.134.177L15.36,3.65A8.359,8.359,0,1,0,8.7,17.055a8.3,8.3,0,0,0,6.664-3.314l.134-.177.134.177a8.357,8.357,0,0,0,13.328,0l.134-.177.134.177a8.357,8.357,0,0,0,13.328,0l.134-.177.134.177a8.357,8.357,0,0,0,13.327,0Z" transform="translate(0 0)"/></g></g></g><g class="e" transform="translate(1054 485)"><path class="g" d="M0,0H200V200H0Z"/><path class="h" d="M 0.649993896484375 0.649993896484375 L 0.649993896484375 199.3500061035156 L 199.3500061035156 199.3500061035156 L 199.3500061035156 0.649993896484375 L 0.649993896484375 0.649993896484375 M 0 0 L 200 0 L 200 200 L 0 200 L 0 0 Z"/></g><rect class="f" width="200" height="10" transform="translate(1054 675)"/></g></svg>